<svg width="32" height="32" viewBox="0 0 32 32" fill="none" xmlns="http://www.w3.org/2000/svg" aria-hidden="true" data-testid="customerLogos[KinesisLogo]" class="e-1k6ejr9"><g clip-path="url(#kinesisLogo_svg__clip0)"><path d="M29.173 17.867l-13.217-.534-13.173.534 13.173 6.089 13.217-6.09z" fill="#FBBF93"></path><path d="M2.783 16h15.87V1.333L16 0 2.783 6.622V16z" fill="#9D5025"></path><path d="M29.217 22.578L16 20.667l-13.217 1.91L16.044 32l13.173-9.422z" fill="#FBBF93"></path><path d="M16 16h6.985V6l-2.034-.8-4.95 1.422V16z" fill="#9D5025"></path><path d="M20.951 16h5.393V9.511l-1.547-.444-3.846.622V16z" fill="#9D5025"></path><path d="M24.797 16h4.376l.044-7.511-1.326-.533-3.094.577V16z" fill="#9D5025"></path><path d="M18.652 1.333L16 0v16h2.652V1.333zM22.984 6l-2.033-.8V16h2.033V6zM26.344 9.511l-1.547-.444V16h1.547V9.511zM27.891 7.956l1.326.533V16h-1.326V7.956zM29.173 20.667l-13.217 3.289V19.2l13.217-1.333v2.8zM29.217 22.578l-13.261 4.71V32l13.261-6.667v-2.755z" fill="#F58536"></path><path d="M2.783 22.578l13.173 4.666V32L2.783 25.378v-2.8zM2.783 17.867L15.956 19.2v4.756l-13.173-3.29v-2.8z" fill="#9D5025"></path></g><defs><clipPath id="kinesisLogo_svg__clip0"><path fill="#fff" d="M0 0h32v32H0z"></path></clipPath></defs></svg>