<svg width="24" height="17" viewBox="0 0 24 17" fill="none" xmlns="http://www.w3.org/2000/svg">
<path d="M22.4976 3.21475L11.014 15.7183L1.48783 6.22931L5.72868 1.9885L10.5951 6.8922L10.9728 7.27276L11.3261 6.86949L14.8871 2.80501L15.6343 3.45755L11.0265 8.72727L6.08458 3.75744L5.73103 3.4019L5.37648 3.75645L3.25648 5.87645L2.9022 6.23072L3.2572 6.58427L10.6172 13.9143L10.9863 14.2819L11.3384 13.898L20.7884 3.59806L21.1133 3.24401L20.7724 2.90535L19.5682 1.7089L20.28 0.997146L22.4976 3.21475ZM17.5 1C17.5 1.27614 17.2762 1.5 17 1.5C16.7238 1.5 16.5 1.27614 16.5 1C16.5 0.723856 16.7238 0.5 17 0.5C17.2762 0.5 17.5 0.723856 17.5 1Z" fill="#1C0732" stroke="#6156BB"/>
</svg>
