<svg width="32" height="32" viewBox="0 0 32 32" fill="none" xmlns="http://www.w3.org/2000/svg" aria-hidden="true" data-testid="customerLogos[PostgresSqlLogo]" class="e-1k6ejr9"><g clip-path="url(#postgresSqlLogo_svg__clip0)"><path d="M19.27 32.001c-.804 0-1.68-.208-2.405-.89-.703-.655-.978-1.495-1.145-1.998a2.921 2.921 0 01-.065-.201c-.333-.884-.442-2.149-.507-3.772-.008-.237-.015-.496-.022-.762-.007-.158-.007-.352-.014-.546-1.109.482-2.413.568-3.804.223a3.849 3.849 0 01-1.087-.453 2.702 2.702 0 01-.58-.488c-1.108.912-2.158.783-2.738.589-1.036-.345-1.956-1.293-2.818-2.91-.608-1.142-1.195-2.63-1.746-4.411C1.383 13.27.774 9.988.716 8.91.542 5.512 1.47 3.083 3.47 1.682 5.121.525 7.374.173 10.171.626c1.188.194 2.224.496 2.861.711 1.16-.682 2.514-1.013 4.05-.991a15.71 15.71 0 012.326.208 13.737 13.737 0 013.977-.553c3.195.036 5.84 1.272 7.658 3.57.688.87 1.275 2.788.174 7.006-.681 2.608-1.862 5.374-3.311 7.802.384-.014.913-.065 1.622-.208.406-.087.754-.1 1.05-.058.639.094 1.131.489 1.32 1.056.55 1.646-1.783 2.867-2.507 3.205-.92.424-2.42.682-3.644.625l-.058-.007-.218-.022-.021.165c-.008.08-.022.165-.03.252-.079 3.132-.535 5.122-1.47 6.437-.985 1.394-2.354 1.789-3.557 2.04a4.533 4.533 0 01-1.123.137zm-2.34-11.51c.775.611.84 1.732.898 3.823l.022.725c.029.683.094 2.285.34 2.946.037.1.073.194.102.302.282.855.398 1.207 1.536.962 1-.215 1.514-.402 1.912-.955.587-.834.92-2.522.978-5.022l1.355.036-1.347-.158c.014-.108.021-.209.036-.31.116-.998.21-1.788.927-2.306.457-.323.964-.366 1.413-.323-.37-.373-.486-.747-.514-.92l-.116-.553.318-.467c1.681-2.471 3.065-5.503 3.804-8.334.826-3.168.463-4.512.319-4.698-3.007-3.815-8.245-2.256-8.824-2.07l-.102.058-.507.093-.26-.05a11.89 11.89 0 00-2.181-.223c-1.218-.021-2.203.266-3.007.87l-.616.467-.717-.295c-1.405-.568-5.52-1.71-7.672-.201-1.188.833-1.732 2.479-1.608 4.9.043.833.615 3.973 1.557 6.99 1.297 4.146 2.442 5.295 2.768 5.389.043-.015.188-.094.413-.367a66.384 66.384 0 012.803-3.14l.783-.818.949.625c.326.215.68.337 1.05.373l2.246-1.904-.326 3.312c-.007.065-.007.151.015.31l.101.624-.427.475-.015.014 1.05.481.544-.66z" fill="#000"></path><path d="M29.811 19.493c-3.644.747-3.898-.482-3.898-.482C29.76 13.35 31.37 6.165 29.985 4.405 26.195-.387 19.639 1.876 19.53 1.941l-.037.007a12.86 12.86 0 00-2.434-.252c-1.651-.028-2.898.432-3.847 1.143 0 0-11.693-4.778-11.15 6.006.117 2.292 3.319 17.365 7.137 12.81 1.398-1.667 2.745-3.068 2.745-3.068a3.54 3.54 0 002.312.582l.065-.057c-.022.208-.015.41.029.646-.986 1.093-.696 1.28-2.659 1.682-1.992.41-.819 1.128-.058 1.322.927.23 3.064.553 4.514-1.452l-.058.23c.384.31.659 1.99.608 3.52-.043 1.531-.072 2.58.225 3.399.304.819.608 2.658 3.187 2.112 2.16-.46 3.282-1.645 3.434-3.635.109-1.408.363-1.2.377-2.465l.203-.596c.232-1.91.036-2.529 1.37-2.241l.325.028c.978.044 2.26-.158 3.014-.503 1.616-.747 2.572-1.99.978-1.666z" fill="#336791"></path><path fill-rule="evenodd" clip-rule="evenodd" d="M26.432 18.964c1.713-2.596 3.122-5.732 3.886-8.653.362-1.38.565-2.666.58-3.715.014-1.156-.181-1.997-.587-2.514C28.666 2.005 26.26.885 23.34.856c-1.986-.02-3.674.482-4.02.629a10.108 10.108 0 00-2.283-.291c-1.51-.023-2.816.335-3.893 1.065a17.176 17.176 0 00-3.141-.814c-2.557-.41-4.586-.1-6.035.92-1.731 1.214-2.528 3.39-2.376 6.459.05 1.034.645 4.21 1.58 7.256 1.23 4.002 2.571 6.272 3.984 6.74.166.057.355.093.565.093.514 0 1.145-.23 1.797-1.02a65.387 65.387 0 012.478-2.78 4.04 4.04 0 001.789.473l.006.054c-.083.099-.156.189-.222.27l-.088.107-.006.006c-.43.541-.522.656-1.907.935l-.03.007c-.418.09-1.42.305-1.434 1.02-.014.791 1.24 1.129 1.384 1.165.5.122.986.186 1.442.186 1.119 0 2.102-.36 2.888-1.067-.025 2.845.093 5.648.437 6.499l.002.005c.284.7.974 2.402 3.142 2.402a5.21 5.21 0 001.05-.115c2.268-.482 3.254-1.48 3.638-3.671.202-1.178.553-3.981.72-5.48.347.107.794.156 1.28.156 1.013 0 2.173-.209 2.89-.553.819-.381 2.296-1.308 2.028-2.113-.137-.416-.58-.546-1.326-.395-2.18.45-2.98.15-3.248-.04zm-.527-.838C29.489 12.54 30.727 6.057 29.6 4.635c-1.464-1.854-3.535-2.824-6.144-2.881a11.933 11.933 0 00-2.629.244c1.563.686 2.707 1.702 3.492 2.608 1.441 1.66 2.144 3.5 2.202 4.11a.797.797 0 010 .141c.035.685-.051 1.256-.138 1.806l-.013.085a9.932 9.932 0 00-.139 1.294c-.014.482.044.999.116 1.545.16 1.333.34 2.838-.591 4.356l.025.031.008.01.115.142zm-.411-7.654c.06-.398.118-.783.127-1.205-1.788-.224-2.501.186-2.787.584-.939 1.325.888 4.579 1.674 5.98l.007.012c.203.36.348.618.413.776.075.183.158.348.244.5.54-1.131.406-2.276.274-3.39l-.004-.034-.01-.081c-.062-.529-.126-1.074-.105-1.6.02-.526.083-.966.144-1.388l.015-.1.008-.054zm-10.732 8.43c.404-.106.74.033.922.11.456.186.84.639.992 1.177.026.087.045.174.057.26a.428.428 0 01.023.15c-.101 3.722.043 7.084.34 7.831.464 1.157 1.174 2.17 3.174 1.746 1.927-.41 2.615-1.1 2.934-2.946.24-1.376.705-5.212.784-6.155l-.002-.016c-.101-1.717.826-2.055 1.34-2.206-.065-.093-.152-.2-.239-.309l-.012-.015c-.289-.358-.68-.843-.98-1.573-.044-.114-.196-.38-.37-.682-.941-1.674-2.898-5.151-1.63-6.94.58-.827 1.725-1.157 3.413-.985-.218-.653-.776-1.882-1.812-3.096-1.202-1.408-3.332-3.104-6.665-3.154-1.688-.029-3.071.488-4.115 1.523-1.654 1.655-2.095 4.268-2.212 5.663.077-.042.16-.086.249-.13.42-.21 1.26-.576 2.173-.676 1.53-.158 2.543.517 2.84 1.904.804 3.7.066 5.345-.478 6.538a8.58 8.58 0 00-.268.632l-.065.18-.005.012c-.158.422-.304.811-.388 1.157zm-5.004-8.64v-.002c-.008-.186-.095-4.662 2.506-7.27l.066-.065c-1.578-.509-5.477-1.5-7.846.165C3.02 4.118 2.354 6.03 2.49 8.773c.044.87.594 3.96 1.543 7.041 1.094 3.557 2.333 5.798 3.405 6.15.167.058.667.223 1.384-.64a65.63 65.63 0 012.422-2.723 4.36 4.36 0 01-.321-.301c-.992-1.027-1.442-2.45-1.239-3.901.218-1.566.138-2.946.094-3.686a7.54 7.54 0 01-.021-.45zm16.626 10.905c-.913.036-1.384-.108-1.492-.194-.05-1.04.34-1.155.749-1.276l.012-.003.094-.029.094-.029c.036.036.08.065.123.094.739.488 2.05.539 3.905.158.007-.007.014-.007.022-.007-.247.237-.674.546-1.283.826-.521.244-1.39.424-2.224.46zm-15.271.862c.13.086.354.194.6.258 1.203.302 2.884.317 4.036-1.278.138-.187.094-.431.058-.56-.08-.274-.275-.518-.47-.604l-.008-.003c-.242-.099-.372-.152-.667.175-.161.184-.288.339-.401.476l-.07.085c-.55.696-.804.926-2.441 1.264a2.81 2.81 0 00-.637.187zm-.43-11.393c-.006-.098-.012-.188-.012-.253.376-.33 2.122-1.258 3.368-.97.565.13.913.51 1.058 1.17.746 3.42.101 4.843-.42 5.986-.109.237-.21.46-.297.69l-.065.179c-.174.445-.334.87-.428 1.264-.848 0-1.673-.359-2.304-1.013-.804-.833-1.166-1.983-1-3.16.228-1.622.149-3.036.104-3.822l-.002-.044-.002-.027zm3.204.3c-.036 0-.065 0-.101-.007a1.033 1.033 0 01-.645-.395c-.058-.08-.152-.223-.138-.36a.3.3 0 01.116-.186c.152-.115.45-.159.775-.108.406.057.82.244.776.531-.022.216-.384.525-.783.525zm9.368-.84c.029.172.34.466.717.466l.03-.001c.021-.002.044-.004.064.001a.907.907 0 00.522-.28c.13-.144.21-.295.195-.395-.036-.223-.434-.287-.811-.237-.384.05-.746.223-.717.445z" fill="#fff"></path></g><defs><clipPath id="postgresSqlLogo_svg__clip0"><path fill="#fff" d="M0 0h32v32H0z"></path></clipPath></defs></svg>