<svg width="32" height="32" viewBox="0 0 32 32" fill="none" xmlns="http://www.w3.org/2000/svg" aria-hidden="true" data-testid="customerLogos[RocksDbLogo]" class="e-1k6ejr9"><path d="M21.412 21.05l-4.334.107-1.634 3.75-4.26 1.112L8.52 28.45h21.458a2.018 2.018 0 002.016-2.016V15.772l-7.608 1.902-2.974 3.375zm-15.632.314l-3.61 3.101a1.292 1.292 0 00-.275-.63L0 25.43c.402.475 1.078.569 1.594.254l3.53-1.6.656-2.72zm20.956-10.883l.435 1.152c.677-.174 1.715-.917 2.445-1.493-.027.2-.014.401.06.602L32 9.885a1.243 1.243 0 00-1.594-.73.269.269 0 00-.06.033l.006-.006-3.616 1.3zm4.005 1.942h-.014l-4.259-.368-.971-2.552V6.798c.194.107.408.167.643.167.703 0 1.279-.543 1.346-1.226l1.018-.676-.047-1.373a.253.253 0 00-.254-.248l-1.273-.02a.973.973 0 00-1.199-.335l-2.8 1.313c.008.007.008.02.008.027.093.194.234.341.401.448-3.409 1.762-4.855 4.14-4.855 4.14L5.452 16.032a1.577 1.577 0 01-2.13-.643 1.577 1.577 0 01.643-2.13l3.697-1.989a2.969 2.969 0 001.554-2.424l-2.217 1.192-3.697 1.99a2.974 2.974 0 002.813 5.236l1.667-.897c-.12.656-.067 1.36.195 2.023.087.227.147.368.147.368.59 1.28-.188 2.284-1.206 2.284h-.321l-1.172 5.103a1.24 1.24 0 00-.59-.341l-.582 2.404a1.23 1.23 0 001.413-.697l2.659-4.768c3.362-.328 5.13-2.605 5.05-5.813 3.482.214 8.123-1.976 10.186-4.97 1.567 1.99 4.528 1.708 5.847 1.206l.255-.087a1.241 1.241 0 00-.148.589l2.478-.027a1.244 1.244 0 00-1.252-1.219zM7.64 7.91c.121.228.182.47.188.71l1.306-.703a2.834 2.834 0 00-.261-.67l-.067-.127-1.232.663.067.127zm-.475-.884l1.232-.663-.16-.295a.705.705 0 00-.951-.287.705.705 0 00-.288.95l.167.295z" fill="#FFBE00"></path><path d="M27.01 3.764a.397.397 0 00-.396.401c0 .221.181.402.395.402.221 0 .402-.18.402-.402a.403.403 0 00-.402-.401zm-2.331 2.993c-.094.054-.154.128-.154.128s.167.194.375.194c.207 0 .375-.194.375-.194s-.06-.074-.154-.128c.147-.06.248-.154.248-.154s-.101-.093-.248-.154c.093-.053.154-.127.154-.127s-.168-.194-.375-.194c-.208 0-.375.194-.375.194s.06.074.154.127c-.148.06-.248.154-.248.154s.1.1.248.154zm-1.353.49s-.168-.195-.375-.195c-.208 0-.375.194-.375.194s.06.074.154.127c-.148.06-.248.155-.248.155s.1.093.248.154a.61.61 0 00-.154.127s.167.194.375.194c.207 0 .375-.194.375-.194s-.06-.074-.154-.127c.147-.06.247-.154.247-.154s-.1-.094-.247-.155c.093-.06.154-.127.154-.127zm1.781 1.895s-.06-.074-.154-.128c.148-.06.248-.154.248-.154s-.1-.093-.248-.154c.094-.053.154-.127.154-.127s-.167-.194-.375-.194c-.207 0-.375.194-.375.194s.06.074.154.127a.901.901 0 00-.248.154s.1.094.248.154c-.094.054-.154.128-.154.128s.168.194.375.194c.201 0 .375-.194.375-.194zm-2.029.676a.613.613 0 00.154-.127s-.167-.194-.375-.194-.375.194-.375.194.06.073.154.127c-.147.06-.248.154-.248.154s.1.094.248.154c-.094.054-.154.127-.154.127s.167.195.375.195.375-.195.375-.195-.06-.073-.154-.127c.147-.06.248-.154.248-.154s-.094-.094-.248-.154zm-1.915-.583c.093-.053.154-.127.154-.127s-.168-.194-.375-.194c-.208 0-.375.194-.375.194s.06.074.154.127a.9.9 0 00-.248.154s.1.094.248.154a.61.61 0 00-.154.128s.167.194.375.194c.207 0 .375-.194.375-.194s-.06-.074-.154-.128a.9.9 0 00.247-.154s-.1-.093-.247-.154zm-.744 2.277s-.06-.073-.154-.127a.902.902 0 00.248-.154s-.1-.094-.248-.154c.094-.053.154-.127.154-.127s-.167-.194-.375-.194-.375.194-.375.194.06.074.154.127c-.147.06-.248.154-.248.154s.1.094.248.154c-.094.054-.154.127-.154.127s.167.195.375.195.375-.195.375-.195zm-3.288.335s.167.195.375.195c.207 0 .375-.195.375-.195s-.06-.073-.154-.127c.147-.06.248-.154.248-.154s-.1-.094-.248-.154c.093-.054.154-.127.154-.127s-.168-.194-.375-.194c-.208 0-.375.194-.375.194s.06.073.154.127a.9.9 0 00-.248.154s.1.094.248.154a.837.837 0 00-.154.127zM18.939 13c.094-.053.154-.127.154-.127s-.167-.194-.375-.194-.375.194-.375.194.06.074.154.127a.9.9 0 00-.248.154s.1.094.248.154a.611.611 0 00-.154.128s.167.194.375.194.375-.194.375-.194-.06-.074-.154-.128c.147-.06.248-.154.248-.154s-.1-.1-.248-.154zm1.982.436a.613.613 0 00.155-.128s-.168-.194-.376-.194c-.207 0-.375.194-.375.194s.06.074.154.128c-.147.06-.247.154-.247.154s.1.093.247.154a.612.612 0 00-.154.127s.168.194.375.194c.208 0 .376-.194.376-.194s-.06-.074-.155-.127c.148-.06.248-.154.248-.154s-.1-.094-.248-.154zm1.621-1.568c.094-.053.154-.127.154-.127s-.167-.194-.375-.194c-.207 0-.375.194-.375.194s.06.074.154.127c-.147.06-.248.154-.248.154s.1.094.248.154a.613.613 0 00-.154.128s.168.194.375.194c.208 0 .375-.194.375-.194s-.06-.074-.154-.128c.147-.06.248-.154.248-.154s-.1-.1-.248-.154zm2.907-1.306a.611.611 0 00.154-.127s-.168-.194-.375-.194c-.208 0-.375.194-.375.194s.06.074.154.127c-.148.06-.248.155-.248.155s.1.093.248.154c-.094.053-.154.127-.154.127s.167.194.375.194c.207 0 .375-.194.375-.194s-.06-.074-.154-.127a.9.9 0 00.248-.154s-.1-.101-.248-.155zm-9.537 2.465c.094-.053.154-.127.154-.127s-.168-.194-.375-.194c-.208 0-.375.194-.375.194s.06.074.154.127c-.148.06-.248.154-.248.154s.1.094.248.154c-.094.054-.154.127-.154.127s.167.195.375.195c.207 0 .375-.195.375-.195s-.06-.073-.154-.127c.147-.06.248-.154.248-.154s-.1-.094-.248-.154zm1.935 1.909c.094-.054.154-.127.154-.127s-.167-.195-.375-.195c-.207 0-.375.195-.375.195s.06.073.154.127c-.147.06-.248.154-.248.154s.101.094.248.154c-.094.053-.154.127-.154.127s.168.194.375.194c.208 0 .375-.194.375-.194s-.06-.073-.154-.127a.9.9 0 00.248-.154s-.1-.1-.248-.154zm-2.464.348c.094-.053.154-.127.154-.127s-.168-.194-.375-.194c-.208 0-.375.194-.375.194s.06.073.154.127c-.148.06-.248.154-.248.154s.1.094.248.154c-.094.054-.154.127-.154.127s.167.195.375.195c.207 0 .375-.195.375-.195s-.06-.073-.154-.127c.147-.06.248-.154.248-.154s-.094-.1-.248-.154zm-2.01-1.42a.61.61 0 00.155-.127s-.168-.194-.376-.194c-.207 0-.375.194-.375.194s.06.074.155.127c-.148.06-.248.154-.248.154s.1.094.248.154c-.094.054-.155.128-.155.128s.168.194.376.194c.207 0 .374-.194.374-.194s-.06-.074-.153-.128c.147-.06.247-.154.247-.154s-.1-.1-.248-.154zm-2.853 1.835c-.093.054-.154.128-.154.128s.168.194.375.194c.208 0 .376-.194.376-.194s-.06-.074-.155-.128c.148-.06.248-.154.248-.154s-.1-.094-.248-.154c.094-.053.155-.127.155-.127s-.168-.194-.376-.194c-.207 0-.375.194-.375.194s.06.074.154.127c-.147.06-.247.154-.247.154s.1.094.247.154zm2.566.683c.093-.053.153-.127.153-.127s-.167-.194-.375-.194c-.207 0-.375.194-.375.194s.06.074.154.127a.9.9 0 00-.247.154s.1.094.247.154c-.093.054-.154.128-.154.128s.168.194.375.194c.208 0 .375-.194.375-.194s-.06-.074-.154-.128c.148-.06.248-.154.248-.154s-.1-.1-.248-.154zm-.422 2.09c.093-.054.154-.127.154-.127s-.168-.195-.375-.195c-.208 0-.375.195-.375.195s.06.073.154.127a.901.901 0 00-.248.154s.1.094.248.154c-.094.054-.154.127-.154.127s.167.195.375.195c.207 0 .375-.195.375-.195s-.06-.073-.154-.127c.147-.06.247-.154.247-.154s-.1-.094-.247-.154zm-1.956-.301s-.06-.074-.154-.128a.901.901 0 00.248-.154s-.1-.093-.248-.154c.094-.053.154-.127.154-.127s-.168-.194-.375-.194c-.208 0-.375.194-.375.194s.06.074.154.127c-.147.06-.248.154-.248.154s.1.094.248.154a.613.613 0 00-.154.128s.167.194.375.194c.2.007.375-.194.375-.194zm.509 1.975c.094-.053.154-.127.154-.127s-.168-.194-.375-.194c-.208 0-.375.194-.375.194s.06.074.154.127a.9.9 0 00-.248.154s.1.094.248.154a.613.613 0 00-.154.128s.167.194.375.194c.207 0 .375-.194.375-.194s-.06-.074-.154-.128c.147-.06.248-.154.248-.154s-.1-.1-.248-.154z" fill="#0F2647"></path></svg>