<svg width="65" height="27" viewBox="0 0 65 27" fill="none" xmlns="http://www.w3.org/2000/svg">
<path d="M35.034 3.63727L30.5718 4.60482V0.949633L35.034 0V3.63727Z" fill="#D9D6EF"/>
<path fill-rule="evenodd" clip-rule="evenodd" d="M44.3137 5.66199C42.5714 5.66199 41.4515 6.4862 40.8292 7.05956L40.5981 5.94867H36.687V26.8406L41.1315 25.891L41.1492 20.8203C41.7892 21.2861 42.7314 21.9491 44.2959 21.9491C47.4781 21.9491 50.3759 19.3689 50.3759 13.6891C50.3581 8.49297 47.4248 5.66199 44.3137 5.66199ZM43.247 18.0072C42.1981 18.0072 41.5759 17.6309 41.1492 17.1651L41.1315 10.5177C41.5937 9.99804 42.2337 9.63969 43.247 9.63969C44.8648 9.63969 45.9848 11.4673 45.9848 13.8145C45.9848 16.2155 44.8826 18.0072 43.247 18.0072Z" fill="#D9D6EF"/>
<path fill-rule="evenodd" clip-rule="evenodd" d="M64.3852 13.8683C64.3852 9.28135 62.1807 5.66199 57.9674 5.66199C53.7363 5.66199 51.1763 9.28134 51.1763 13.8324C51.1763 19.2256 54.1985 21.9491 58.5363 21.9491C60.6518 21.9491 62.2518 21.4653 63.4607 20.7844V17.2009C62.2518 17.8101 60.8652 18.1864 59.1052 18.1864C57.3807 18.1864 55.8518 17.5772 55.6563 15.4629H64.3496C64.3496 15.3642 64.356 15.1398 64.3634 14.8813C64.3734 14.5302 64.3852 14.116 64.3852 13.8683ZM55.6029 12.1661C55.6029 10.1414 56.8296 9.29926 57.9496 9.29926C59.034 9.29926 60.1896 10.1414 60.1896 12.1661H55.6029Z" fill="#D9D6EF"/>
<path d="M35.034 5.96655H30.5718V21.6445H35.034V5.96655Z" fill="#D9D6EF"/>
<path d="M25.5046 5.96646L25.789 7.29236C26.8379 5.35726 28.9179 5.75145 29.4868 5.96646V10.0875C28.9357 9.89041 27.1579 9.63957 26.109 11.0192V21.6444H21.6646V5.96646H25.5046Z" fill="#D9D6EF"/>
<path d="M16.9005 2.07849L12.5627 3.01021L12.5449 17.3622C12.5449 20.014 14.5183 21.967 17.1494 21.967C18.6071 21.967 19.6738 21.6983 20.2605 21.3758V17.7385C19.6916 17.9714 16.8827 18.7956 16.8827 16.1438V9.78306H20.2605V5.96661H16.8827L16.9005 2.07849Z" fill="#D9D6EF"/>
<path d="M6.39366 9.55011C5.45143 9.55011 4.88254 9.81887 4.88254 10.5177C4.88254 11.2806 5.86161 11.6162 7.07625 12.0326C9.0564 12.7114 11.6626 13.6048 11.6737 16.9142C11.6737 20.1215 9.13143 21.967 5.43365 21.967C3.90477 21.967 2.23365 21.6624 0.580321 20.9457V16.6813C2.07365 17.5055 3.9581 18.1147 5.43365 18.1147C6.42921 18.1147 7.14032 17.846 7.14032 17.0217C7.14032 16.1766 6.07899 15.7903 4.79768 15.324C2.84633 14.6137 0.384766 13.7178 0.384766 10.7327C0.384766 7.56125 2.78477 5.66199 6.39366 5.66199C7.86921 5.66199 9.32699 5.89492 10.8025 6.4862V10.6968C9.45143 9.96221 7.74477 9.55011 6.39366 9.55011Z" fill="#D9D6EF"/>
</svg>
