<svg width="32" height="32" viewBox="0 0 32 32" fill="none" xmlns="http://www.w3.org/2000/svg" aria-hidden="true" data-testid="customerLogos[ShowflakeLogo]" class="e-1k6ejr9"><path d="M11.224 11.549l-6.771-3.9a1.983 1.983 0 01-.73-2.712 1.992 1.992 0 012.719-.724l3.845 2.214V1.978A1.98 1.98 0 0112.271 0a1.98 1.98 0 011.98 1.978v7.816c0 .575-.245 1.093-.64 1.455a1.993 1.993 0 01-2.387.3zM10.66 16.026a1.944 1.944 0 00-.972-1.714l-6.772-3.9a1.947 1.947 0 00-2.655.71 1.938 1.938 0 00.712 2.65l3.903 2.245-3.903 2.249c-.45.259-.773.676-.905 1.176a1.92 1.92 0 00.193 1.472 1.95 1.95 0 002.655.71l6.772-3.899c.605-.35.977-1 .971-1.7zM27.5 24.388l-6.772-3.902a1.996 1.996 0 00-2.718.728 1.98 1.98 0 00-.257 1.184v7.627A1.98 1.98 0 0019.737 32a1.98 1.98 0 001.98-1.976V25.64l3.794 2.186c.951.549 2.17.221 2.718-.728a1.976 1.976 0 00-.729-2.709z" fill="#29B5E8"></path><path fill-rule="evenodd" clip-rule="evenodd" d="M19.68 16.342c0 .15-.087.357-.194.466l-2.683 2.677a.762.762 0 01-.467.193h-.684a.762.762 0 01-.467-.193L12.5 16.808a.765.765 0 01-.194-.466v-.681c0-.152.087-.36.194-.466l2.686-2.68a.762.762 0 01.467-.193h.684c.15 0 .36.087.467.193l2.683 2.68a.752.752 0 01.194.466v.681zm-2.396-.327v-.03a.566.566 0 00-.141-.341l-.793-.788a.543.543 0 00-.343-.144h-.029a.556.556 0 00-.343.144l-.79.788a.552.552 0 00-.141.342v.029c0 .112.063.264.141.342l.79.79a.57.57 0 00.343.142h.029a.556.556 0 00.343-.141l.793-.791a.553.553 0 00.141-.342z" fill="#29B5E8"></path><path d="M27.5 7.65l-6.771 3.899a1.992 1.992 0 01-2.719-.725 1.984 1.984 0 01-.257-1.185V1.98A1.98 1.98 0 0119.737 0a1.98 1.98 0 011.98 1.978v4.42l3.794-2.185a1.992 1.992 0 012.719.724c.55.95.221 2.166-.73 2.712zM12.582 20.256a1.977 1.977 0 00-1.358.23l-6.771 3.902a1.979 1.979 0 00-.73 2.71 1.99 1.99 0 002.719.727l3.845-2.215v4.414A1.98 1.98 0 0012.271 32a1.98 1.98 0 001.98-1.976v-7.816c0-.986-.723-1.802-1.669-1.952zM29.014 10.372a1.99 1.99 0 012.718.728c.55.949.225 2.162-.73 2.709l-3.833 2.208 3.834 2.209c.951.549 1.28 1.762.73 2.711a1.995 1.995 0 01-2.72.728l-6.77-3.902a1.979 1.979 0 01-.995-1.737 1.986 1.986 0 01.994-1.754l6.772-3.9z" fill="#29B5E8"></path></svg>