<svg width="32" height="32" viewBox="0 0 32 32" fill="none" xmlns="http://www.w3.org/2000/svg" aria-hidden="true" data-testid="customerLogos[IntercomLogo]" class="e-1k6ejr9"><path fill-rule="evenodd" clip-rule="evenodd" d="M28 0H4a4 4 0 00-4 4v24a4 4 0 004 4h24a4 4 0 004-4V4a4 4 0 00-4-4zm-7.734 5.867a1.067 1.067 0 012.134 0v14.251a1.067 1.067 0 01-2.134 0V5.867zm-5.333-.54a1.067 1.067 0 012.134 0v15.467a1.067 1.067 0 01-2.134 0V5.327zm-5.333.54a1.067 1.067 0 012.133 0v14.251a1.067 1.067 0 11-2.133 0V5.867zM4.267 8A1.067 1.067 0 116.4 8v9.594a1.067 1.067 0 01-2.133 0V8zm23.094 16.27c-.164.142-4.116 3.457-11.361 3.457-7.245 0-11.195-3.315-11.361-3.457a1.066 1.066 0 011.385-1.621c.062.052 3.591 2.945 9.975 2.945 6.464 0 9.938-2.914 9.972-2.943a1.065 1.065 0 011.503.115 1.064 1.064 0 01-.113 1.504zm.372-6.676a1.067 1.067 0 01-2.133 0V8a1.066 1.066 0 112.133 0v9.594z" fill="#286EFA"></path></svg>