<svg width="32" height="32" viewBox="0 0 32 32" fill="none" xmlns="http://www.w3.org/2000/svg" aria-hidden="true" data-testid="customerLogos[BigQueryLogo]" class="e-1k6ejr9"><g clip-path="url(#bigQueryLogo_svg__clip0)"><path fill-rule="evenodd" clip-rule="evenodd" d="M11.6 16a4.4 4.4 0 108.8 0 4.4 4.4 0 00-8.8 0zm1.648 1.578v-1.802h1.095v2.921a3.198 3.198 0 01-1.095-1.119zm2.17-3.321v4.852c.187.034.378.055.573.055.179 0 .353-.019.523-.047v-4.86H15.42zm2.273 4.409v-2.14h1.096v.964c-.259.48-.637.883-1.096 1.176z" fill="url(#bigQueryLogo_svg__paint0_linear)"></path><path fill-rule="evenodd" clip-rule="evenodd" d="M.385 17.437l6.563 11.367a2.875 2.875 0 002.49 1.437h13.124a2.875 2.875 0 002.49-1.437l6.563-11.367a2.874 2.874 0 000-2.875L25.052 3.197a2.875 2.875 0 00-2.49-1.438H9.438a2.875 2.875 0 00-2.49 1.438L.386 14.563a2.875 2.875 0 000 2.874zM10.2 16a5.799 5.799 0 1110.362 3.578l2.273 2.273a.273.273 0 010 .384l-.601.6a.272.272 0 01-.384 0l-2.273-2.272A5.799 5.799 0 0110.201 16z" fill="url(#bigQueryLogo_svg__paint1_linear)"></path><path opacity="0.07" d="M29.807 21.62l-9.65-9.651L16 10.856l-3.733 1.388L10.825 16l1.16 4.182 10.234 10.235 2.172-.097 5.416-8.7z" fill="#000"></path><path fill-rule="evenodd" clip-rule="evenodd" d="M16 10.201a5.799 5.799 0 103.578 10.362l2.273 2.272a.272.272 0 00.384 0l.6-.6a.273.273 0 000-.384l-2.272-2.273A5.799 5.799 0 0016 10.201zM16 20.4a4.4 4.4 0 110-8.8 4.4 4.4 0 010 8.8zm-2.753-4.624v1.802c.267.459.644.843 1.096 1.12v-2.922h-1.096zm2.172 3.334v-4.853h1.095v4.86c-.17.029-.344.047-.523.047-.195 0-.386-.02-.572-.055zm2.272-2.585v2.14a3.196 3.196 0 001.096-1.174v-.966H17.69z" fill="#fff"></path></g><defs><linearGradient id="bigQueryLogo_svg__paint0_linear" x1="16" y1="1.758" x2="16" y2="30.197" gradientUnits="userSpaceOnUse"><stop stop-color="#4387FD"></stop><stop offset="1" stop-color="#4683EA"></stop></linearGradient><linearGradient id="bigQueryLogo_svg__paint1_linear" x1="16" y1="1.758" x2="16" y2="30.197" gradientUnits="userSpaceOnUse"><stop stop-color="#4387FD"></stop><stop offset="1" stop-color="#4683EA"></stop></linearGradient><clipPath id="bigQueryLogo_svg__clip0"><path fill="#fff" d="M0 0h32v32H0z"></path></clipPath></defs></svg>