<svg width="32" height="32" viewBox="0 0 32 32" fill="none" xmlns="http://www.w3.org/2000/svg"><path opacity="0.4" d="M13.333 5.667a2 2 0 012-2h1.334c1.105 0 2.038-1.01 1.285-1.818A2.66 2.66 0 0016 1H2.666A2.667 2.667 0 000 3.667v24a2.666 2.666 0 002.666 2.667H16a2.66 2.66 0 001.952-.849c.753-.808-.18-1.817-1.285-1.817h-1.334a2 2 0 01-2-2v-20zm-2.666 18c0 .737-.597 1.334-1.333 1.334H3.999a1.333 1.333 0 010-2.667h5.335c.736 0 1.333.597 1.333 1.334zm0-5.333c0 .736-.597 1.333-1.334 1.333H4A1.334 1.334 0 014 17h5.333c.737 0 1.334.597 1.334 1.334zm0-5.333c0 .736-.597 1.333-1.334 1.333H4a1.333 1.333 0 010-2.667h5.334c.737 0 1.334.597 1.334 1.334zm0-5.334c0 .737-.597 1.334-1.334 1.334H4a1.334 1.334 0 110-2.668h5.333c.737 0 1.334.597 1.334 1.334z" fill="url(#engineeringIcon_svg__paint0_linear)"></path><path d="M28.132 5.29c.36-.185.769-.29 1.203-.29a2.667 2.667 0 010 5.335c-.434 0-.841-.105-1.201-.29-.18-.092-.359-.192-.539-.292C26.928 9.38 26.251 9 25.503 9h-8.17a1.334 1.334 0 010-2.667h8.172c.75 0 1.428-.38 2.096-.754.177-.099.354-.198.531-.29z" fill="url(#engineeringIcon_svg__paint1_linear)"></path><path d="M28.133 15.958a2.62 2.62 0 011.202-.29 2.667 2.667 0 010 5.333c-.434 0-.841-.104-1.201-.29-.18-.091-.359-.191-.539-.292-.667-.373-1.344-.751-2.092-.751h-8.17a1.334 1.334 0 010-2.668h8.172c.748 0 1.426-.378 2.093-.751.178-.1.356-.2.535-.291z" fill="url(#engineeringIcon_svg__paint2_linear)"></path><path d="M21.334 21.001c-.587 0-1.126.192-1.563.515-.552.407-1.156.819-1.842.819h-.596a1.333 1.333 0 000 2.666h.595c.686 0 1.29.413 1.843.82.438.323.976.514 1.563.514a2.666 2.666 0 100-5.334z" fill="url(#engineeringIcon_svg__paint3_linear)"></path><path d="M22.799 10.624c.36-.185.768-.29 1.203-.29a2.667 2.667 0 010 5.333c-.434 0-.842-.104-1.202-.29a17.3 17.3 0 01-.538-.292c-.667-.373-1.345-.751-2.093-.751h-2.835a1.334 1.334 0 010-2.668h2.837c.749 0 1.427-.379 2.094-.752.178-.1.356-.198.534-.29z" fill="url(#engineeringIcon_svg__paint4_linear)"></path><defs><linearGradient id="engineeringIcon_svg__paint0_linear" x1="18.667" y1="1" x2="20.356" y2="29.111" gradientUnits="userSpaceOnUse"><stop stop-color="#5E97EE"></stop><stop offset="1" stop-color="#897AE3"></stop></linearGradient><linearGradient id="engineeringIcon_svg__paint1_linear" x1="32" y1="5" x2="33.043" y2="25.466" gradientUnits="userSpaceOnUse"><stop stop-color="#5E97EE"></stop><stop offset="1" stop-color="#897AE3"></stop></linearGradient><linearGradient id="engineeringIcon_svg__paint2_linear" x1="32" y1="5" x2="33.043" y2="25.466" gradientUnits="userSpaceOnUse"><stop stop-color="#5E97EE"></stop><stop offset="1" stop-color="#897AE3"></stop></linearGradient><linearGradient id="engineeringIcon_svg__paint3_linear" x1="32" y1="5" x2="33.043" y2="25.466" gradientUnits="userSpaceOnUse"><stop stop-color="#5E97EE"></stop><stop offset="1" stop-color="#897AE3"></stop></linearGradient><linearGradient id="engineeringIcon_svg__paint4_linear" x1="32" y1="5" x2="33.043" y2="25.466" gradientUnits="userSpaceOnUse"><stop stop-color="#5E97EE"></stop><stop offset="1" stop-color="#897AE3"></stop></linearGradient></defs></svg>