<svg width="32" height="32" viewBox="0 0 32 32" fill="none" xmlns="http://www.w3.org/2000/svg"><path fill-rule="evenodd" clip-rule="evenodd" d="M5.668 8.667A8.667 8.667 0 0114.335 0c.368 0 .666.298.666.667v16a.667.667 0 01-.666.666 8.667 8.667 0 01-8.668-8.666zM17.67 12a3.334 3.334 0 100-6.667 2.33 2.33 0 00-.29.02.333.333 0 01-.377-.33V.667c0-.369.298-.667.667-.667.484.004.967.049 1.444.133a.667.667 0 01.561.654v1.3c0 .14.09.266.222.313.218.077.431.166.64.267a.334.334 0 00.376-.072l.917-.916c.23-.23.594-.26.86-.071a8.652 8.652 0 012.04 2.041.667.667 0 01-.071.859l-.916.916c-.1.1-.126.253-.064.38.098.21.188.424.266.641a.333.333 0 00.314.222h1.292c.326 0 .603.235.658.556a8.123 8.123 0 010 2.888.667.667 0 01-.658.556h-1.292a.332.332 0 00-.319.221c-.077.217-.166.43-.267.64a.333.333 0 00.064.38l.92.913c.23.23.26.593.071.858a8.659 8.659 0 01-2.042 2.042.667.667 0 01-.858-.072l-.918-.916a.334.334 0 00-.38-.064 6.69 6.69 0 01-.64.267.333.333 0 00-.221.315v1.292a.667.667 0 01-.556.657c-.477.085-.96.13-1.445.133a.667.667 0 01-.666-.666v-4.41a.292.292 0 01.334-.289c.11.018.222.029.334.032zm-3.334 6C6.974 18.008 1.008 23.973 1 31.333c0 .369.299.667.667.667h12.669a.667.667 0 00.666-.667V18.667a.667.667 0 00-.666-.667zm15.83 10.667c.327.002.605.24.66.564.113.702.172 1.412.174 2.124a.667.667 0 01-.667.642h-6.4a.325.325 0 01-.322-.298 7.054 7.054 0 00-6.312-6.311.325.325 0 01-.299-.321v-6.4c0-.361.287-.657.648-.667.954 0 1.905.101 2.837.303.302.07.517.34.516.65v2.012c0 .142.09.268.223.315.504.178.994.394 1.466.645.13.07.29.046.393-.058l1.38-1.366a.667.667 0 01.844-.081 13.288 13.288 0 013.831 4.133.667.667 0 01-.106.8l-1.467 1.467a.332.332 0 00-.072.367c.173.403.32.817.441 1.238a.335.335 0 00.322.242h1.91z" fill="#9173CF"></path></svg>