<svg width="32" height="32" viewBox="0 0 32 32" fill="none" xmlns="http://www.w3.org/2000/svg" aria-hidden="true" data-testid="customerLogos[SalesforceMarketingCloudLogo]" class="e-1rrm6cs"><path d="M13.418 7.997c.993-1.028 2.375-1.678 3.9-1.678 2.032 0 3.792 1.134 4.738 2.812a6.533 6.533 0 012.682-.567c3.663 0 6.617 2.99 6.617 6.676s-2.966 6.676-6.617 6.676c-.45 0-.886-.047-1.3-.13a4.845 4.845 0 01-6.345 1.997 5.53 5.53 0 01-5.08 3.367 5.53 5.53 0 01-5.188-3.615c-.343.07-.697.106-1.052.106-2.836 0-5.128-2.316-5.128-5.187a5.192 5.192 0 012.564-4.49 5.852 5.852 0 01-.496-2.375C2.7 8.316 5.383 5.645 8.668 5.645c1.938 0 3.663.922 4.75 2.352z" fill="#00A1E0"></path><path d="M5.088 16.8l.13-.343c.024-.06.06-.036.083-.024.035.024.059.035.106.071.366.236.709.236.815.236.272 0 .45-.141.45-.342v-.012c0-.213-.26-.296-.568-.39l-.07-.024c-.414-.118-.863-.295-.863-.815v-.012c0-.496.401-.85.98-.85h.06c.342 0 .661.094.898.248.023.011.047.035.035.07-.012.036-.118.308-.13.343-.024.06-.083.024-.083.024a1.797 1.797 0 00-.803-.201c-.248 0-.402.13-.402.307v.012c0 .2.272.295.579.39l.06.012c.413.13.85.307.85.815v.012c0 .543-.39.874-1.016.874-.308 0-.603-.047-.922-.213-.059-.035-.118-.059-.177-.106-.012-.024-.036-.035-.012-.083zm9.216 0l.13-.343c.024-.06.071-.036.083-.024.036.024.06.035.107.071.366.236.708.236.815.236.271 0 .449-.141.449-.342v-.012c0-.213-.26-.296-.567-.39l-.071-.024c-.414-.118-.863-.295-.863-.815v-.012c0-.496.402-.85.98-.85h.06c.343 0 .662.094.898.248.024.011.047.035.035.07-.011.036-.118.308-.13.343-.023.06-.082.024-.082.024a1.796 1.796 0 00-.804-.201c-.248 0-.401.13-.401.307v.012c0 .2.271.295.579.39l.059.012c.413.13.85.307.85.815v.012c0 .543-.39.874-1.016.874-.307 0-.602-.047-.921-.213-.06-.035-.119-.059-.178-.106 0-.024-.023-.035-.012-.083zm6.83-1.62c.047.178.083.367.083.568 0 .2-.024.39-.083.567a1.22 1.22 0 01-.236.46c-.107.13-.248.237-.402.308-.165.07-.354.106-.567.106-.213 0-.402-.035-.567-.106a1.046 1.046 0 01-.402-.307 1.22 1.22 0 01-.236-.461 2.193 2.193 0 01-.083-.567c0-.201.024-.39.083-.567.047-.178.13-.331.236-.461a1.14 1.14 0 01.402-.307c.165-.071.354-.119.567-.119.213 0 .402.036.567.119.165.07.295.177.402.307.106.13.189.283.236.46zm-.532.556c0-.307-.059-.544-.165-.709-.106-.165-.284-.248-.508-.248-.236 0-.402.083-.508.248-.107.165-.166.402-.166.709 0 .307.06.543.166.72.106.166.271.249.508.249.236 0 .402-.083.508-.248.118-.166.165-.414.165-.721zm4.857.886l.13.355c.012.047-.024.059-.024.059-.2.082-.473.13-.744.13-.461 0-.804-.13-1.04-.39s-.355-.615-.355-1.052c0-.2.024-.39.083-.567a1.23 1.23 0 01.685-.768c.166-.071.367-.118.591-.118.154 0 .284.012.39.023.118.024.284.06.355.095.011 0 .047.024.035.059a5.839 5.839 0 01-.13.354c-.023.06-.059.036-.059.036a1.66 1.66 0 00-.555-.083c-.26 0-.461.083-.58.26-.13.166-.2.39-.2.697 0 .331.082.567.224.721.142.154.343.225.603.225.106 0 .2-.012.284-.024a.986.986 0 00.248-.07c-.012.023.035.01.059.058zm2.682-1.548c.118.402.059.745.047.768 0 .047-.047.047-.047.047h-1.784c.012.272.07.461.212.591.13.13.331.213.615.213.425 0 .602-.083.732-.13 0 0 .048-.012.071.036l.119.33c.023.06 0 .071-.012.083-.107.06-.378.177-.898.177-.248 0-.473-.035-.65-.106a1.191 1.191 0 01-.45-.295c-.117-.13-.2-.284-.26-.45a1.783 1.783 0 01-.082-.567c0-.2.024-.39.083-.567.047-.177.13-.33.236-.46.107-.13.248-.237.414-.308a1.32 1.32 0 01.59-.118c.19 0 .367.036.509.106.106.048.224.13.342.26.06.048.166.225.213.39zm-1.772.378h1.264a.945.945 0 00-.118-.425.544.544 0 00-.497-.26c-.236 0-.401.095-.508.26-.07.106-.106.248-.142.425zm-12.49-.378c.118.402.06.745.06.768 0 .047-.048.047-.048.047h-1.784c.011.272.07.461.212.591.13.13.331.213.615.213.425 0 .602-.083.732-.13 0 0 .048-.012.071.036l.118.33c.024.06 0 .071-.011.083-.107.06-.378.177-.898.177-.248 0-.473-.035-.65-.106a1.193 1.193 0 01-.45-.295c-.117-.13-.2-.284-.26-.45a1.78 1.78 0 01-.082-.567c0-.2.024-.39.083-.567.047-.177.13-.33.236-.46.106-.13.248-.237.414-.308a1.32 1.32 0 01.59-.118c.19 0 .367.036.508.106a.977.977 0 01.544.65zm-1.772.378h1.276a.944.944 0 00-.118-.425.543.543 0 00-.497-.26c-.236 0-.401.095-.508.26-.082.106-.118.248-.153.425zm-3.132-.094s.142.012.296.035v-.07c0-.237-.047-.355-.142-.426a.742.742 0 00-.437-.118s-.437 0-.78.177c-.012.012-.024.012-.024.012s-.047.012-.059-.024l-.13-.342c-.023-.048.012-.071.012-.071.166-.13.544-.201.544-.201.13-.024.342-.047.472-.047.355 0 .627.082.816.248.189.165.283.425.283.791v1.631s0 .047-.035.06c0 0-.071.023-.13.034-.06.012-.272.06-.45.083a2.733 2.733 0 01-.543.047c-.177 0-.33-.011-.472-.047a1.14 1.14 0 01-.367-.153.8.8 0 01-.236-.284.841.841 0 01-.083-.402c0-.153.036-.295.095-.413a.888.888 0 01.26-.296c.106-.082.236-.13.366-.177.142-.035.284-.059.437-.059.142.012.237.012.307.012zm-.709 1.252s.166.13.52.107a3.4 3.4 0 00.485-.06v-.815s-.225-.035-.485-.035c-.366 0-.52.13-.52.13-.106.07-.153.189-.153.342 0 .095.024.178.059.237.012.023.024.047.094.094zm15.066-2.162c-.012.047-.107.295-.13.378-.012.036-.036.047-.071.047 0 0-.106-.023-.2-.023a.957.957 0 00-.237.035.619.619 0 00-.225.13.565.565 0 00-.153.26c-.036.107-.06.284-.06.473v1.323c0 .036-.023.06-.058.06h-.473c-.036 0-.06-.024-.06-.06v-2.658c0-.036.024-.06.048-.06h.46c.036 0 .048.024.048.06v.212a.789.789 0 01.296-.224.937.937 0 01.46-.071c.119.012.272.035.296.047.047.012.07.024.059.071zm-4.384-1.229c.012 0 .047.024.036.06l-.142.377c-.012.024-.024.048-.083.024-.012 0-.035-.012-.095-.024-.035-.011-.094-.011-.141-.011a.92.92 0 00-.19.023.305.305 0 00-.153.095.59.59 0 00-.13.189c-.07.189-.094.39-.094.402h.567c.047 0 .059.023.059.059l-.071.366c-.012.059-.06.047-.06.047h-.59l-.378 2.28a4.416 4.416 0 01-.154.603c-.059.166-.13.284-.236.402a.693.693 0 01-.33.224c-.119.048-.273.071-.438.071-.083 0-.165 0-.26-.023a.678.678 0 01-.165-.047c-.024-.012-.036-.036-.024-.071.012-.036.118-.32.13-.367.024-.047.059-.023.059-.023.035.011.06.023.095.035.047.012.094.012.141.012a.57.57 0 00.213-.036.356.356 0 00.166-.13c.047-.059.082-.141.13-.248.035-.106.07-.26.106-.437l.401-2.233h-.39c-.047 0-.058-.024-.058-.06l.07-.365c.012-.06.06-.048.06-.048h.401l.024-.118c.059-.354.177-.626.354-.803.178-.178.438-.272.757-.272.094 0 .177.012.248.023a.284.284 0 01.165.024zm-7.964 3.84c0 .036-.024.06-.047.06h-.473c-.035 0-.047-.024-.047-.06v-3.793c0-.023.024-.059.047-.059h.473c.035 0 .047.024.047.06v3.792z" fill="#fff"></path></svg>