<svg width="32" height="32" viewBox="0 0 32 32" fill="none" xmlns="http://www.w3.org/2000/svg"><path fill-rule="evenodd" clip-rule="evenodd" d="M14.97 10.779c7.162 0 12.969-2.413 12.969-5.39C27.939 2.413 22.132 0 14.97 0 7.808 0 2.001 2.413 2.001 5.39c0 2.976 5.807 5.389 12.969 5.389zm8.543.324a.333.333 0 01-.014.4l-1.353 1.67-.001.001-.003.004-2.614 3.225a.341.341 0 01-.216.122c-1.438.212-2.89.318-4.343.317C7.807 16.842 2 14.43 2 11.452V9.14c0-.13.076-.249.195-.304.119-.056.26-.04.362.043 2.643 2.126 7.628 3.248 12.413 3.248a28.26 28.26 0 008.16-1.153.344.344 0 01.383.13zM2 17.516c0 3.119 6.13 5.39 12.992 5.39a.34.34 0 00.341-.323 3.112 3.112 0 01.74-1.914l1.646-2.03c.086-.106.1-.25.036-.37a.342.342 0 00-.33-.178c-.818.067-1.637.104-2.456.104-4.778 0-9.768-1.123-12.413-3.247a.344.344 0 00-.362-.044.335.335 0 00-.194.305v2.307zm12.969 11.452c1.383 0 2.764-.095 4.133-.285a.34.34 0 00.294-.334v-2.075a.34.34 0 00-.342-.337h-.507a3.244 3.244 0 01-2.744-1.536.342.342 0 00-.296-.16c-1.748.024-9.104-.09-12.945-3.234a.343.343 0 00-.363-.047.335.335 0 00-.195.307v2.306C2 26.556 7.807 28.968 14.97 28.968zm11.935-9.431c0 .186.153.337.341.337h2.561c.466 0 .889.267 1.084.684.195.417.127.909-.175 1.259l-8.054 9.93a.688.688 0 01-.759.215.674.674 0 01-.456-.636v-7.073a.34.34 0 00-.341-.337h-2.56c-.465-.001-.888-.268-1.083-.685a1.168 1.168 0 01.173-1.258l8.054-9.93a.678.678 0 01.758-.216c.273.095.457.35.457.636v7.074z" fill="#60CDD7"></path></svg>