<svg width="32" height="32" viewBox="0 0 32 32" fill="none" xmlns="http://www.w3.org/2000/svg" aria-hidden="true" data-testid="customerLogos[AmplitudeLogo]" class="e-1k6ejr9"><path d="M14.104 7.203c-.09-.116-.192-.18-.302-.18a.495.495 0 00-.231.077c-.855.669-2.018 3.502-2.975 7.242l.848.006c1.67.02 3.393.039 5.102.065a76.315 76.315 0 00-1.266-4.363c-.572-1.729-.95-2.5-1.176-2.847z" fill="#00A7CF"></path><path fill-rule="evenodd" clip-rule="evenodd" d="M0 16C0 7.165 7.165 0 16 0s16 7.165 16 16-7.165 16-16 16S0 24.835 0 16zm27.444.328l.058-.039a.879.879 0 00.308-.488.843.843 0 00-.661-.996h-.033l-.014-.002a.75.75 0 00-.114-.011l-.116-.013c-2.686-.193-5.436-.27-8.025-.321l-.007-.02c-1.26-4.722-2.834-9.548-4.954-9.548-1.98.006-3.76 3.18-5.295 9.427a347.472 347.472 0 01-3.013-.046h-.142c-.116-.006-.231 0-.347.013-.527.097-.912.56-.906 1.093 0 .546.405 1.015.945 1.098l.013.013h2.955a72.212 72.212 0 00-.713 3.676l-.09.527v.026c0 .25.129.481.34.616a.737.737 0 001.016-.225l.02.02 1.445-4.633h6.978c.534 2.017 1.086 4.093 1.819 6.046v.003c.393 1.049 1.306 3.486 2.834 3.5h.019c2.364 0 3.29-3.824 3.9-6.356l.073-.296c.103-.42.192-.784.28-1.066l.046-.141a.364.364 0 00-.232-.463.364.364 0 00-.462.231l-.052.142-.288.808-.264.74-.013.032-.023.065c-1.012 2.853-1.475 4.157-2.387 4.157h-.064c-1.168 0-2.26-4.704-2.684-6.53l-.009-.037a56.38 56.38 0 00-.115-.49 68.15 68.15 0 01-.084-.358h7.576c.135 0 .27-.032.392-.096l.032-.02.039-.025.02-.013z" fill="#00A7CF"></path></svg>