<svg width="32" height="32" viewBox="0 0 32 32" fill="none" xmlns="http://www.w3.org/2000/svg"><path d="M11.625 14.164C11.15 11.324 13.12 9 16 9c2.879 0 4.848 2.323 4.374 5.164l-.716 4.3c-.284 1.707-1.93 3.1-3.658 3.1-1.73 0-3.373-1.393-3.656-3.1l-.72-4.3z" fill="url(#marketingIcon_svg__paint0_linear)"></path><path d="M18.671 22.85c.872-.486 1.893-.773 2.84-.457l3.47 1.155c.927.31 1.686 1.364 1.686 2.342v1.777A2.667 2.667 0 0124 30.334H8a2.667 2.667 0 01-2.667-2.667V25.89c0-.978.761-2.032 1.688-2.341l3.468-1.156c.947-.316 1.969-.03 2.84.457a5.482 5.482 0 002.671.714c.949 0 1.862-.262 2.671-.714z" fill="url(#marketingIcon_svg__paint1_linear)"></path><g opacity="0.4"><path d="M13.963 7.314c.541-.166.985-.591 1.077-1.15C15.515 3.323 13.546 1 10.667 1c-2.88 0-4.85 2.323-4.375 5.164l.718 4.3c.018.105.04.208.067.31.473 1.768 2.506.585 3.505-.95.136-.208.285-.409.446-.6a6.22 6.22 0 012.935-1.91z" fill="url(#marketingIcon_svg__paint2_linear)"></path><path d="M9.44 20.635c.736-.245 1.057-1.076.93-1.842l-.24-1.442c-.188-1.124-1.12-1.959-2.12-2.503-.877-.478-1.907-.77-2.854-.455l-3.468 1.155C.76 15.859 0 16.912 0 17.89v1.778a2.667 2.667 0 002.667 2.666h1.551c.596 0 1.161-.227 1.697-.489.152-.074.31-.14.47-.193l3.054-1.016z" fill="url(#marketingIcon_svg__paint3_linear)"></path><path d="M21.333 6.333c-1.447 0-1.298 1.787-.363 2.891 1.198 1.414 1.7 3.333 1.376 5.268l-.716 4.3c-.002.015-.007.029-.011.042-.006.018.008.034.027.032 1.61-.156 3.078-1.467 3.345-3.068l.716-4.3c.474-2.842-1.495-5.165-4.374-5.165z" fill="url(#marketingIcon_svg__paint4_linear)"></path><path d="M25.746 19.36a.835.835 0 00-.792.166c-.585.486-.548 1.723.173 1.963l.485.162c1.742.582 3.055 2.404 3.055 4.238V26A1.667 1.667 0 0032 26v-2.777c0-.978-.759-2.032-1.686-2.342l-4.568-1.52z" fill="url(#marketingIcon_svg__paint5_linear)"></path></g><defs><linearGradient id="marketingIcon_svg__paint0_linear" x1="26.667" y1="9" x2="27.45" y2="29.488" gradientUnits="userSpaceOnUse"><stop stop-color="#5E97EE"></stop><stop offset="1" stop-color="#897AE3"></stop></linearGradient><linearGradient id="marketingIcon_svg__paint1_linear" x1="26.667" y1="9" x2="27.45" y2="29.488" gradientUnits="userSpaceOnUse"><stop stop-color="#5E97EE"></stop><stop offset="1" stop-color="#897AE3"></stop></linearGradient><linearGradient id="marketingIcon_svg__paint2_linear" x1="32" y1="1" x2="32.816" y2="26.621" gradientUnits="userSpaceOnUse"><stop stop-color="#5E97EE"></stop><stop offset="1" stop-color="#897AE3"></stop></linearGradient><linearGradient id="marketingIcon_svg__paint3_linear" x1="32" y1="1" x2="32.816" y2="26.621" gradientUnits="userSpaceOnUse"><stop stop-color="#5E97EE"></stop><stop offset="1" stop-color="#897AE3"></stop></linearGradient><linearGradient id="marketingIcon_svg__paint4_linear" x1="32" y1="1" x2="32.816" y2="26.621" gradientUnits="userSpaceOnUse"><stop stop-color="#5E97EE"></stop><stop offset="1" stop-color="#897AE3"></stop></linearGradient><linearGradient id="marketingIcon_svg__paint5_linear" x1="32" y1="1" x2="32.816" y2="26.621" gradientUnits="userSpaceOnUse"><stop stop-color="#5E97EE"></stop><stop offset="1" stop-color="#897AE3"></stop></linearGradient></defs></svg>