<svg width="120" height="26" viewBox="0 0 120 26" fill="none" xmlns="http://www.w3.org/2000/svg">
<g clip-path="url(#clip0)">
<path d="M22.79 8.66504H9.43163C9.1768 8.66504 8.97021 8.87162 8.97021 9.12645V10.6817C8.97021 10.9365 9.1768 11.1431 9.43163 11.1431H22.79C23.0448 11.1431 23.2514 10.9365 23.2514 10.6817V9.12645C23.2514 8.87162 23.0448 8.66504 22.79 8.66504Z" fill="white"/>
<path d="M13.9536 14.8569H0.595201C0.34037 14.8569 0.133789 15.0635 0.133789 15.3183V16.8736C0.133789 17.1284 0.34037 17.335 0.595201 17.335H13.9536C14.2084 17.335 14.415 17.1284 14.415 16.8736V15.3183C14.415 15.0635 14.2084 14.8569 13.9536 14.8569Z" fill="white"/>
<path fill-rule="evenodd" clip-rule="evenodd" d="M1.84724 10.3606C1.96443 10.3909 2.08881 10.3741 2.19375 10.3138C2.29868 10.2534 2.37584 10.1544 2.40868 10.038C3.14837 7.72261 4.72639 5.76715 6.83325 4.55508C8.9401 3.34302 11.4238 2.96181 13.7972 3.48622C13.912 3.50989 14.0316 3.48862 14.1312 3.4268C14.2309 3.36497 14.303 3.2673 14.3328 3.15388L14.7361 1.64864C14.7519 1.58822 14.7553 1.52522 14.7461 1.46345C14.7369 1.40168 14.7153 1.34241 14.6826 1.28921C14.6499 1.23601 14.6067 1.18997 14.5558 1.15387C14.5048 1.11777 14.4471 1.09235 14.386 1.07914C11.3868 0.404035 8.2433 0.883956 5.58215 2.42324C2.92099 3.96253 0.937626 6.44812 0.0274069 9.38455C0.0102695 9.44345 0.0050477 9.50517 0.0120467 9.56611C0.0190458 9.62705 0.0381252 9.68598 0.0681692 9.73946C0.0982131 9.79294 0.138619 9.83989 0.187022 9.87757C0.235426 9.91525 0.290857 9.9429 0.350073 9.9589L1.84724 10.3606Z" fill="white"/>
<path fill-rule="evenodd" clip-rule="evenodd" d="M21.5411 15.6331C21.423 15.6014 21.2972 15.6174 21.1909 15.6778C21.0846 15.7382 21.0064 15.8381 20.9732 15.9558C20.2351 18.2726 18.6578 20.23 16.5507 21.4436C14.4437 22.6573 11.9592 23.0396 9.58473 22.5156C9.46985 22.4915 9.3501 22.5126 9.25036 22.5745C9.15062 22.6364 9.07855 22.7343 9.04911 22.8479L8.65384 24.3451C8.63782 24.4056 8.63424 24.4688 8.64333 24.5308C8.65241 24.5927 8.67397 24.6522 8.70669 24.7056C8.73942 24.759 8.78263 24.8051 8.83373 24.8414C8.88482 24.8776 8.94272 24.903 9.00393 24.9162C12.0033 25.5897 15.1463 25.1089 17.8071 23.5695C20.4679 22.0301 22.4514 19.5451 23.3626 16.6092C23.3799 16.5504 23.3853 16.4887 23.3784 16.4278C23.3715 16.3669 23.3524 16.308 23.3223 16.2546C23.2922 16.2012 23.2517 16.1544 23.2032 16.1169C23.1547 16.0794 23.0992 16.0521 23.0399 16.0365L21.5411 15.6331Z" fill="white"/>
<path d="M18.7536 5.94516C19.5039 5.94516 20.1122 5.33691 20.1122 4.5866C20.1122 3.83628 19.5039 3.22803 18.7536 3.22803C18.0033 3.22803 17.395 3.83628 17.395 4.5866C17.395 5.33691 18.0033 5.94516 18.7536 5.94516Z" fill="white"/>
<path d="M4.63518 22.7708C5.38549 22.7708 5.99375 22.1626 5.99375 21.4123C5.99375 20.662 5.38549 20.0537 4.63518 20.0537C3.88486 20.0537 3.27661 20.662 3.27661 21.4123C3.27661 22.1626 3.88486 22.7708 4.63518 22.7708Z" fill="white"/>
<path fill-rule="evenodd" clip-rule="evenodd" d="M56.5197 10.5365C57.015 9.99258 57.6202 9.56001 58.2952 9.26743C58.9702 8.97484 59.6996 8.82892 60.4352 8.83931C61.8647 8.83931 62.9779 9.28136 63.6813 10.13V9.42656C63.6859 9.32933 63.7264 9.23727 63.7949 9.16815C63.8634 9.09902 63.9551 9.05774 64.0523 9.05227H65.9367C66.0338 9.05809 66.1253 9.09949 66.1937 9.16854C66.2622 9.23759 66.3028 9.32945 66.3078 9.42656V19.889C66.3662 21.3653 65.91 22.8161 65.0171 23.9933C64.0007 25.2291 62.4584 25.8551 60.432 25.8551C57.6151 25.8551 55.392 24.0723 55.0258 21.5265C55.0169 21.4347 55.0404 21.3426 55.0923 21.2663C55.1441 21.19 55.221 21.1342 55.3097 21.1087L57.1505 20.6763C57.1602 20.6755 57.1699 20.6755 57.1796 20.6763C57.2276 20.669 57.2766 20.6713 57.3237 20.683C57.3708 20.6947 57.4152 20.7156 57.4542 20.7446C57.4932 20.7735 57.526 20.8099 57.5509 20.8516C57.5758 20.8934 57.5921 20.9396 57.599 20.9877C57.6812 21.6765 58.0175 22.3098 58.5421 22.7637C59.0667 23.2176 59.7418 23.4593 60.4352 23.4415C62.6358 23.4415 63.6619 22.3122 63.6619 19.9519V19.0355C63.2581 19.488 62.7597 19.8463 62.2022 20.0849C61.6446 20.3236 61.0414 20.4368 60.4352 20.4165C57.3038 20.4165 55.0322 17.9853 55.0322 14.6392C55.0044 13.1349 55.5342 11.6735 56.5197 10.5365V10.5365ZM93.06 8.69572H93.1584C96.5254 8.74089 98.6114 11.0851 98.6114 14.836C98.6111 15.0349 98.6004 15.2336 98.5792 15.4314C98.5686 15.5199 98.526 15.6016 98.4595 15.661C98.3929 15.7204 98.307 15.7535 98.2178 15.754H90.2141C90.2381 16.562 90.579 17.328 91.1631 17.8868C91.7472 18.4455 92.5276 18.7521 93.3359 18.7403C93.9688 18.7798 94.5966 18.6037 95.1166 18.2407C95.6367 17.8777 96.0184 17.3492 96.1995 16.7414C96.233 16.6525 96.2995 16.5799 96.3851 16.5388C96.4708 16.4976 96.569 16.491 96.6593 16.5204L98.2517 17.085C98.2977 17.1001 98.34 17.1246 98.3759 17.1572C98.4118 17.1897 98.4403 17.2294 98.4598 17.2738C98.4816 17.3166 98.4945 17.3634 98.4978 17.4114C98.5012 17.4593 98.4948 17.5074 98.4791 17.5529C98.1179 18.623 97.4225 19.5486 96.4953 20.1935C95.5681 20.8383 94.4583 21.1682 93.3294 21.1345C92.5771 21.1418 91.8309 20.9999 91.1339 20.7168C90.4368 20.4338 89.8029 20.0153 89.2687 19.4857C88.6857 18.8725 88.2311 18.1491 87.9316 17.3579C87.6321 16.5666 87.4937 15.7235 87.5246 14.878C87.5246 11.006 90.3383 8.68765 93.0567 8.68765L93.06 8.69572ZM47.7771 8.69572C51.2038 8.69572 53.3334 11.0496 53.3334 14.8377C53.3331 15.0365 53.3223 15.2352 53.3011 15.433C53.2915 15.522 53.2493 15.6042 53.1825 15.6638C53.1157 15.7234 53.0292 15.7562 52.9397 15.7556H44.936C44.9584 16.5681 45.3012 17.3388 45.8897 17.8995C46.4782 18.4601 47.2645 18.7653 48.0772 18.7484C48.7103 18.7885 49.3382 18.6126 49.8584 18.2495C50.3786 17.8864 50.7602 17.3576 50.9408 16.7495C50.9733 16.6598 51.0397 16.5864 51.1256 16.5451C51.2116 16.5038 51.3103 16.4978 51.4006 16.5284L52.9994 17.0915C53.0455 17.1063 53.088 17.1308 53.1239 17.1634C53.1597 17.1959 53.1883 17.2358 53.2075 17.2802C53.2259 17.3245 53.2353 17.3719 53.2353 17.4198C53.2353 17.4677 53.2259 17.5151 53.2075 17.5593C52.8465 18.6289 52.1515 19.5542 51.225 20.199C50.2985 20.8438 49.1894 21.174 48.061 21.1409C47.3074 21.1491 46.5597 21.0075 45.8613 20.7245C45.1628 20.4414 44.5275 20.0226 43.9922 19.4921C43.4103 18.8783 42.9563 18.1547 42.6569 17.3636C42.3575 16.5726 42.2186 15.7298 42.2482 14.8844C42.2482 11.0125 45.0618 8.69411 47.7819 8.69411L47.7771 8.69572ZM35.6545 8.69572C37.192 8.69572 38.4359 9.0684 39.3571 9.80569C39.9792 10.3019 40.4406 10.971 40.6833 11.7288C40.6909 11.761 40.6921 11.7944 40.6867 11.8271C40.6813 11.8597 40.6695 11.891 40.6519 11.9191C40.6344 11.9471 40.6114 11.9714 40.5844 11.9906C40.5574 12.0097 40.5268 12.0232 40.4945 12.0305L38.5859 12.6613C38.5013 12.6935 38.4077 12.6935 38.323 12.6613C38.287 12.6446 38.2549 12.6205 38.2291 12.5904C38.2032 12.5604 38.184 12.5251 38.1729 12.487C38.0116 11.8691 37.4566 10.8318 35.6513 10.8318C34.3913 10.8318 33.6363 11.5545 33.6363 12.2547C33.6363 12.7194 33.8766 13.3179 35.0124 13.5341L37.1097 13.9277C39.4539 14.4004 40.7962 15.683 40.7962 17.469V17.4383C40.7962 19.213 39.0893 21.1087 35.9175 21.1087C32.2391 21.1087 30.7936 19.0275 30.5274 17.7997C30.5186 17.7356 30.5336 17.6705 30.5695 17.6167C30.6055 17.5628 30.66 17.5241 30.7226 17.5077L32.6908 16.8947C32.726 16.8882 32.7621 16.8882 32.7973 16.8947C32.8535 16.8936 32.909 16.907 32.9587 16.9334C32.9944 16.9505 33.0259 16.9753 33.0509 17.006C33.076 17.0367 33.0941 17.0724 33.1039 17.1108C33.3523 18.2918 34.4187 18.9952 35.953 18.9952C37.3808 18.9952 38.031 18.2482 38.031 17.5706C38.031 16.893 37.4518 16.3945 36.4563 16.1945L34.2493 15.7653C32.1907 15.3765 30.9081 14.0971 30.9081 12.4322C30.9081 10.4058 33.0845 8.69572 35.6545 8.69572ZM116.732 5.4126C116.832 5.41877 116.927 5.46295 116.995 5.53611C117.064 5.60928 117.102 5.70591 117.102 5.80625V9.03291H119.172C119.271 9.04023 119.364 9.08487 119.432 9.15787C119.5 9.23087 119.538 9.32685 119.538 9.42656V11.1464C119.538 11.2442 119.5 11.3383 119.432 11.4081C119.363 11.4779 119.27 11.5178 119.172 11.519H117.102V17.2609C117.102 18.2127 117.479 18.6064 118.451 18.6064C118.672 18.6027 118.893 18.5844 119.112 18.5515C119.165 18.5425 119.219 18.5452 119.271 18.5594C119.323 18.5736 119.371 18.599 119.412 18.6338C119.451 18.6701 119.483 18.714 119.504 18.7629C119.526 18.8117 119.537 18.8644 119.538 18.9178V20.5311C119.539 20.6114 119.513 20.6897 119.465 20.7543C119.418 20.8189 119.35 20.8662 119.273 20.8893C118.801 21.0217 118.312 21.0853 117.821 21.078C115.747 21.078 114.461 19.7438 114.461 17.5916V11.5432H112.67C112.573 11.5374 112.482 11.4959 112.414 11.4268C112.345 11.3578 112.305 11.2659 112.301 11.169V9.44592C112.3 9.34546 112.338 9.24862 112.407 9.17537C112.475 9.10212 112.57 9.05805 112.67 9.05227H113.135C113.698 9.05227 114.646 8.85544 114.646 7.51315V5.80625C114.646 5.70579 114.684 5.60895 114.752 5.5357C114.821 5.46245 114.915 5.41838 115.016 5.4126H116.732ZM77.8834 10.6188C78.288 10.0004 78.8466 9.49787 79.5043 9.1607C80.162 8.82353 80.896 8.66328 81.6344 8.69572V8.69572C83.6801 8.69572 85.7468 10.1364 85.7468 13.284V20.5698C85.7418 20.6669 85.7012 20.7588 85.6327 20.8278C85.5643 20.8969 85.4728 20.9383 85.3757 20.9441H83.4897C83.3929 20.9379 83.3018 20.8963 83.2337 20.8273C83.1656 20.7583 83.1252 20.6667 83.1203 20.5698V13.518C83.1203 12.6258 82.8412 11.1222 80.9519 11.1222C79.5709 11.1222 78.59 12.2079 78.59 13.7825V20.5698C78.5854 20.6668 78.5452 20.7586 78.477 20.8277C78.4088 20.8968 78.3175 20.9382 78.2206 20.9441H76.3104C76.2133 20.9383 76.1218 20.8969 76.0534 20.8278C75.9849 20.7588 75.9443 20.6669 75.9393 20.5698V13.518C75.9426 12.6258 75.6651 11.1157 73.7742 11.1157C72.3384 11.1157 71.3704 12.1934 71.3704 13.7987V20.5698C71.3654 20.6667 71.3251 20.7583 71.2569 20.8273C71.1888 20.8963 71.0977 20.9379 71.0009 20.9441H69.1166C69.0202 20.9375 68.9297 20.8957 68.8622 20.8267C68.7947 20.7577 68.7549 20.6663 68.7503 20.5698V9.40236C68.7552 9.30603 68.7951 9.21481 68.8626 9.14587C68.93 9.07693 69.0204 9.03503 69.1166 9.02807H70.9299C71.0267 9.03427 71.1178 9.07584 71.186 9.14485C71.2541 9.21386 71.2945 9.30551 71.2994 9.40236V10.0751C71.7033 9.63322 72.1962 9.28185 72.7457 9.04411C73.2951 8.80636 73.8887 8.68763 74.4873 8.69572C75.175 8.67559 75.8551 8.84418 76.4538 9.18319C77.0525 9.52221 77.5469 10.0187 77.8834 10.6188V10.6188ZM106.618 8.69572C107.222 8.66993 107.823 8.78157 108.376 9.02221C108.93 9.26286 109.422 9.6262 109.814 10.0848C110.547 11.049 110.919 12.2388 110.868 13.4486V20.5698C110.864 20.6661 110.824 20.7575 110.757 20.8266C110.69 20.8956 110.599 20.9375 110.503 20.9441H108.595C108.498 20.9379 108.406 20.8964 108.338 20.8274C108.27 20.7585 108.229 20.6668 108.224 20.5698V13.8293C108.224 12.066 107.394 11.169 105.82 11.169C105.477 11.1579 105.137 11.2276 104.826 11.3725C104.515 11.5174 104.243 11.7334 104.031 12.003C103.604 12.617 103.388 13.3531 103.416 14.1004V20.5698C103.411 20.6667 103.371 20.7583 103.302 20.8273C103.234 20.8963 103.143 20.9379 103.046 20.9441H101.141C101.044 20.9379 100.953 20.8963 100.885 20.8273C100.817 20.7583 100.777 20.6667 100.772 20.5698V9.39429C100.776 9.29693 100.816 9.20448 100.884 9.13499C100.952 9.06549 101.044 9.02392 101.141 9.01839H103.003C103.099 9.02462 103.19 9.06607 103.257 9.13482C103.325 9.20357 103.365 9.29479 103.369 9.39106V10.1784C103.764 9.70213 104.261 9.32136 104.824 9.0646C105.387 8.80783 106 8.68172 106.618 8.69572ZM60.7628 11.1932C58.9042 11.1932 57.7249 12.5145 57.7249 14.6392C57.7249 16.764 58.8897 18.0837 60.7628 18.0837C62.5487 18.0837 63.7523 16.6978 63.7523 14.6392C63.7523 12.5806 62.5487 11.1932 60.7628 11.1932ZM47.7964 11.0867C47.1107 11.0748 46.4452 11.3193 45.9302 11.7723C45.4151 12.2252 45.0877 12.854 45.0118 13.5357H50.6101C50.4762 12.024 49.4017 11.0867 47.7964 11.0867V11.0867ZM93.0906 11.0867C92.4055 11.076 91.741 11.321 91.2268 11.7738C90.7125 12.2266 90.3854 12.8548 90.3093 13.5357H95.9091C95.7704 12.024 94.7023 11.0867 93.089 11.0867H93.0906Z" fill="white"/>
<path d="M33.6848 1.1438V4.89641H32.6216V1.1438H31.1519V0.233887H35.1707V1.1438H33.6848Z" fill="white"/>
<path d="M41.8062 4.91254H40.7011L39.6879 1.47615L38.657 4.91254H37.5745L36.2031 0.233887H37.3325L38.202 3.60413L39.1829 0.233887H40.3123L41.2803 3.60413L42.1224 0.233887H43.1614L41.8062 4.91254Z" fill="white"/>
<path d="M44.6248 4.89641V0.233887H45.6718V4.89641H44.6248Z" fill="white"/>
<path d="M47.5562 4.89641V0.233887H48.6193V3.97842H50.4392V4.89641H47.5562Z" fill="white"/>
<path d="M52.0234 4.89641V0.233887H53.0786V4.89641H52.0234Z" fill="white"/>
<path d="M57.0263 4.98475C55.7357 4.98475 54.7031 4.0587 54.7031 2.57282C54.7031 1.08695 55.7502 0.152832 57.0344 0.152832C58.3186 0.152832 59.356 1.07888 59.356 2.57282C59.356 4.06677 58.317 4.98475 57.0263 4.98475ZM57.0263 1.00628C56.2197 1.00628 55.7502 1.67097 55.7502 2.56476C55.7502 3.45854 56.2342 4.1313 57.0263 4.1313C57.8185 4.1313 58.2847 3.45047 58.2847 2.57282C58.2847 1.69517 57.8136 1.00628 57.0344 1.00628H57.0263Z" fill="white"/>
</g>
<defs>
<clipPath id="clip0">
<rect width="119.538" height="25.71" fill="white" transform="translate(0 0.14502)"/>
</clipPath>
</defs>
</svg>
