<svg width="32" height="32" viewBox="0 0 32 32" fill="none" xmlns="http://www.w3.org/2000/svg" aria-hidden="true" data-testid="customerLogos[AndroidLogo]" class="e-1k6ejr9"><path fill-rule="evenodd" clip-rule="evenodd" d="M20.994.745a.269.269 0 00-.106-.365.269.269 0 00-.363.107l-1.362 2.489a9.271 9.271 0 00-3.786-.795 9.274 9.274 0 00-3.777.79L10.236.49a.266.266 0 00-.363-.107.265.265 0 00-.106.363l1.349 2.461c-2.65 1.367-4.442 3.97-4.44 6.96l17.404-.002c0-2.989-1.788-5.587-4.434-6.957L20.993.745zm-2.38 5.537c0-.4.326-.73.73-.73.4 0 .728.33.727.73a.728.728 0 11-1.458 0zm8.084 4.189c1.067 0 1.931.864 1.931 1.931l.002 8.092a1.931 1.931 0 11-3.864 0v-8.09c-.001-1.068.864-1.934 1.93-1.933zM6.75 23.377l-.003-12.539 17.273-.003.003 12.54c0 1.14-.926 2.062-2.063 2.061l-1.409.001.002 4.28a1.933 1.933 0 01-3.864.002l-.002-4.281H14.08l.001 4.28a1.934 1.934 0 01-1.933 1.934 1.933 1.933 0 01-1.93-1.932l-.002-4.281H8.81c-1.14-.001-2.062-.922-2.061-2.062zm4.669-17.823a.73.73 0 000 1.46.73.73 0 100-1.46zM2.134 20.496l-.001-8.09a1.932 1.932 0 013.865-.002v8.092a1.931 1.931 0 11-3.864 0z" fill="#A4C639"></path></svg>