<svg width="32" height="32" viewBox="0 0 32 32" fill="none" xmlns="http://www.w3.org/2000/svg" aria-hidden="true" data-testid="customerLogos[GoLogo]" class="e-1rrm6cs"><path d="M2.415 13.62c-.062 0-.078-.031-.047-.078l.327-.42c.031-.047.11-.079.172-.079h5.562c.062 0 .078.047.047.094l-.265.405c-.031.047-.11.094-.156.094l-5.64-.016zM.062 15.053c-.062 0-.078-.03-.046-.078l.327-.42c.03-.047.109-.078.171-.078H7.62c.062 0 .093.047.078.093l-.125.374c-.016.063-.078.094-.14.094l-7.37.015zM3.833 16.487c-.063 0-.078-.047-.047-.094l.218-.39c.031-.046.094-.093.156-.093h3.116c.062 0 .093.047.093.11l-.03.373c0 .063-.063.11-.11.11l-3.396-.016zM20.005 13.34c-.981.249-1.651.436-2.617.685-.234.062-.25.078-.452-.156-.234-.265-.405-.436-.732-.592-.982-.483-1.932-.343-2.82.234-1.06.685-1.605 1.698-1.59 2.96.016 1.247.873 2.275 2.104 2.446 1.06.14 1.947-.233 2.648-1.028.14-.171.265-.358.421-.576H13.96c-.327 0-.405-.203-.296-.468a24.85 24.85 0 01.795-1.698.42.42 0 01.39-.25h5.67c-.03.421-.03.842-.093 1.263a6.644 6.644 0 01-1.278 3.053c-1.122 1.48-2.586 2.4-4.44 2.649-1.527.203-2.945-.093-4.191-1.028-1.153-.873-1.808-2.026-1.979-3.46-.202-1.697.296-3.224 1.324-4.564 1.107-1.45 2.571-2.368 4.363-2.696 1.464-.264 2.867-.093 4.129.764.825.545 1.418 1.293 1.807 2.197.093.14.031.218-.156.264z" fill="#00ACD7"></path><path d="M25.162 21.955c-1.418-.03-2.71-.436-3.801-1.37-.92-.795-1.496-1.808-1.683-3.008-.28-1.76.203-3.318 1.262-4.705 1.137-1.496 2.508-2.275 4.362-2.602 1.59-.28 3.085-.124 4.44.795 1.232.841 1.995 1.979 2.198 3.474.265 2.104-.343 3.817-1.792 5.282-1.028 1.044-2.29 1.698-3.74 1.994-.42.078-.84.094-1.246.14zm3.708-6.294c-.015-.202-.015-.358-.046-.514-.28-1.543-1.699-2.415-3.179-2.072-1.449.327-2.384 1.246-2.726 2.71-.28 1.216.311 2.447 1.433 2.945.857.374 1.714.328 2.54-.093 1.23-.639 1.9-1.636 1.978-2.976z" fill="#00ACD7"></path></svg>