<svg width="32" height="32" viewBox="0 0 32 32" fill="none" xmlns="http://www.w3.org/2000/svg" aria-hidden="true" data-testid="customerLogos[FacebookLogo]" class="e-1k6ejr9"><path d="M22.083 32V19.61h4.165l.621-4.827h-4.786V11.69c0-1.402.383-2.354 2.393-2.354h2.552v-4.31A36.267 36.267 0 0023.3 4.84c-3.689 0-6.215 2.248-6.215 6.386v3.557H12.92v4.827h4.165V32h4.999z" fill="#fff"></path><path fill-rule="evenodd" clip-rule="evenodd" d="M32 30.228c0 .979-.793 1.772-1.772 1.772h-8.145V19.61h4.165l.621-4.826h-4.786v-3.095c0-1.401.383-2.353 2.393-2.353h2.552V5.025A36.26 36.26 0 0023.3 4.84c-3.69 0-6.215 2.248-6.215 6.386v3.557H12.92v4.827h4.165V32H1.772A1.77 1.77 0 010 30.241V1.771C0 .794.793 0 1.772 0h28.456C31.207 0 32 .793 32 1.772v28.456z" fill="#485A96"></path></svg>