<svg width="48" height="48" viewBox="0 0 48 48" fill="none" xmlns="http://www.w3.org/2000/svg">
<path fill-rule="evenodd" clip-rule="evenodd" d="M24 0C10.752 0 0 10.752 0 24C0 37.248 10.752 48 24 48C37.248 48 48 37.248 48 24C48 10.752 37.248 0 24 0ZM24 44.512C17.664 44.512 11.984 41.616 8.224 37.088C11.6 38.192 15.44 37.232 18.4 34.272C18.704 33.968 18.992 33.632 19.28 33.264C20.64 36.192 23.264 37.664 25.856 37.664C30.288 37.664 34.016 33.088 34.496 27.44C34.976 21.792 31.744 17.264 27.504 17.264C25.856 17.264 24.4 17.696 23.152 18.448C23.728 15.056 24.272 11.888 24.464 10.816C24.6205 9.92397 24.3178 9.46053 24.0799 9.09631L24.064 9.072C23.664 8.464 23.328 8.192 22.8 8.192H16.688C16.336 8.192 16.08 8.432 15.984 8.832C15.872 9.28 15.664 10.464 15.632 11.024C15.616 11.504 15.936 11.68 16.32 11.68H20.784L20.3248 14.4682C19.5829 18.9751 18.6037 24.9229 18.304 26.656C18.096 27.936 17.184 30.304 15.472 32C13.024 34.448 8.56 35.024 5.856 32.336C4.928 31.408 3.488 29.056 3.488 23.984C3.488 12.672 12.688 3.472 24 3.472C35.312 3.472 44.512 12.688 44.512 24C44.512 35.312 35.312 44.512 24 44.512ZM27.184 20.688C24.432 20.688 22.08 23.712 21.68 27.488C21.136 32 23.488 34.32 25.776 34.32C28.352 34.32 30.608 31.264 31.008 27.488C31.408 23.712 29.632 20.688 27.184 20.688Z" fill="#D9D6EF"/>
</svg>
