<svg width="32" height="32" viewBox="0 0 32 32" fill="none" xmlns="http://www.w3.org/2000/svg" aria-hidden="true" data-testid="customerLogos[TwilioLogo]" class="e-1k6ejr9"><path d="M15.36 12.053a3.323 3.323 0 01-3.307 3.307 3.323 3.323 0 01-3.306-3.307 3.323 3.323 0 013.306-3.306 3.323 3.323 0 013.307 3.306zm-3.307 4.587a3.323 3.323 0 00-3.306 3.307 3.323 3.323 0 003.306 3.306 3.323 3.323 0 003.307-3.306 3.323 3.323 0 00-3.307-3.307zM32 16c0 8.853-7.147 16-16 16S0 24.853 0 16 7.147 0 16 0s16 7.147 16 16zm-4.267 0A11.7 11.7 0 0016 4.267 11.7 11.7 0 004.267 16 11.7 11.7 0 0016 27.733 11.7 11.7 0 0027.733 16zm-7.786.64a3.323 3.323 0 00-3.307 3.307 3.323 3.323 0 003.307 3.306 3.323 3.323 0 003.306-3.306 3.323 3.323 0 00-3.306-3.307zm0-7.893a3.323 3.323 0 00-3.307 3.306 3.323 3.323 0 003.307 3.307 3.323 3.323 0 003.306-3.307 3.323 3.323 0 00-3.306-3.306z" fill="#F22F46"></path></svg>