<svg width="32" height="32" viewBox="0 0 32 32" fill="none" xmlns="http://www.w3.org/2000/svg" aria-hidden="true" data-testid="customerLogos[TwitterLogo]" class="e-1k6ejr9"><path d="M32 6.078a13.124 13.124 0 01-3.77 1.034 6.584 6.584 0 002.886-3.632 13.143 13.143 0 01-4.17 1.593A6.556 6.556 0 0022.156 3a6.565 6.565 0 00-6.566 6.565c0 .515.059 1.016.17 1.496a18.638 18.638 0 01-13.531-6.86 6.534 6.534 0 00-.89 3.301 6.562 6.562 0 002.921 5.465 6.54 6.54 0 01-2.973-.822v.083a6.57 6.57 0 005.266 6.438 6.571 6.571 0 01-2.965.112 6.572 6.572 0 006.133 4.56 13.172 13.172 0 01-8.154 2.81c-.53 0-1.052-.031-1.566-.092a18.582 18.582 0 0010.064 2.95c12.076 0 18.68-10.004 18.68-18.68 0-.285-.007-.568-.02-.85A13.338 13.338 0 0032 6.079z" fill="#2CAAE1"></path></svg>