<svg width="32" height="32" viewBox="0 0 32 32" fill="none" xmlns="http://www.w3.org/2000/svg" aria-hidden="true" data-testid="customerLogos[GoogleAnalyticsLogo]" class="e-1k6ejr9"><path d="M22.135 4.963v21.945c0 2.455 1.698 3.824 3.5 3.824 1.667 0 3.5-1.164 3.5-3.824V5.129c0-2.25-1.667-3.657-3.5-3.657s-3.5 1.551-3.5 3.491z" fill="#F9AB00"></path><path d="M12.968 16.102v10.806c0 2.456 1.699 3.824 3.5 3.824 1.667 0 3.5-1.164 3.5-3.824v-10.64c0-2.25-1.666-3.657-3.5-3.657-1.833 0-3.5 1.55-3.5 3.491zM7.302 30.732c1.933 0 3.5-1.563 3.5-3.491a3.496 3.496 0 00-3.5-3.491 3.496 3.496 0 00-3.5 3.491 3.496 3.496 0 003.5 3.491z" fill="#E37400"></path></svg>