<svg width="32" height="32" viewBox="0 0 32 32" fill="none" xmlns="http://www.w3.org/2000/svg" aria-hidden="true" data-testid="customerLogos[RubyLogo]" class="e-1k6ejr9"><path d="M15.936 11.017H8.987l3.475-4.013L15.936 3l3.483 4.004 3.475 4.013h-6.958z" fill="#F8ACA8"></path><path d="M15.936 11.017h6.958l-3.475 8.859-3.483 8.869-3.474-8.869-3.475-8.86h6.949z" fill="#EF3B30"></path><path d="M4.517 11.017H0l2.258-4.013L4.517 3l2.249 4.004 2.258 4.013H4.517zM27.328 11.017h-4.517l2.259-4.013L27.328 3l2.25 4.004 2.257 4.013h-4.507z" fill="#E54743"></path><path d="M4.517 3h11.419l-6.912 8.017L4.517 3zM27.328 3H15.936l6.875 8.017L27.328 3z" fill="#F4857F"></path><path d="M0 11.017h9.024l6.912 17.728L0 11.016z" fill="#CC2227"></path><path d="M15.936 28.745l6.875-17.729h9.024L15.936 28.745z" fill="#F4857F"></path></svg>