<svg width="48" height="48" viewBox="0 0 48 48" fill="none" xmlns="http://www.w3.org/2000/svg">
<path d="M0 13.5V14.8781H9.3312V13.5H0ZM10.6752 13.5V14.8781H24C23.1168 14.0269 22.0032 13.5405 20.8128 13.5H10.6752ZM26.5728 13.5V14.8781H34.6368L34.176 13.5H26.5728ZM40.3968 13.5L39.936 14.8781H47.9232V13.5H40.3968ZM0 16.1752V17.5533H9.3312V16.1752H0ZM10.6752 16.1752V17.5533H25.536C25.536 17.5533 25.3824 16.4995 25.0752 16.1752H10.6752ZM26.5728 16.1752V17.5533H35.4816L35.0592 16.1752H26.5728ZM39.4752 16.1752L39.0528 17.5533H47.9616V16.2157L39.4752 16.1752ZM2.688 18.8909V20.2691H6.72V18.8909H2.688ZM13.3632 18.8909V20.2691H17.3952V18.8909H13.3632ZM21.3504 18.8909V20.2691H25.3824C25.536 19.8232 25.6128 19.3368 25.6512 18.8909H21.3504ZM29.2608 18.8909V20.2691H36.4416L35.9808 18.8909H29.2608ZM38.592 18.8909L38.1312 20.2691H45.312V18.8909H38.592ZM2.688 21.6067V22.9848H6.72V21.6067H2.688ZM13.3632 21.6067V22.9848H23.6928C24.1536 22.62 24.5376 22.1336 24.8448 21.6067H13.3632ZM29.2608 21.6067V22.9848H33.2928V22.2147L33.5616 22.9848H40.9728L41.2416 22.2147V22.9848H45.312V21.6067H37.7088L37.3248 22.7821L36.9024 21.6067H29.2608ZM2.688 24.2819V25.66H6.72V24.2819H2.688ZM13.3632 24.2819V25.66H24.8448C24.5376 25.1331 24.1536 24.6467 23.6928 24.2819H13.3632ZM29.2608 24.2819V25.66H33.2928V24.2819H29.2608ZM34.0608 24.2819L34.56 25.66H40.128L40.5888 24.2819H34.0608ZM41.28 24.2819V25.66H45.312V24.2819H41.28ZM2.688 26.9976V28.3757H6.72V26.9976H2.688ZM13.3632 26.9976V28.3757H17.3952V26.9976H13.3632ZM21.3504 26.9976V28.3757H25.6512C25.6128 27.8893 25.536 27.4435 25.3824 26.9976H21.3504ZM29.2608 26.9976V28.3757H33.2928V26.9976H29.2608ZM34.9824 26.9976L35.4432 28.3757H39.168L39.6288 26.9976H34.9824ZM41.28 26.9976V28.3757H45.312V26.9976H41.28ZM0.0768 29.6728V31.0509H9.408V29.6728H0.0768ZM10.6752 29.6728V31.0509H25.0368C25.344 30.7267 25.4976 29.6728 25.4976 29.6728H10.6752ZM26.6496 29.6728V31.0509H33.2928V29.6728H26.6496ZM35.904 29.6728L36.4032 31.0509H38.2848L38.7456 29.6728H35.904ZM41.28 29.6728V31.0509H48V29.6728H41.28ZM0.0768 32.3885V33.7667H9.408V32.3885H0.0768ZM10.6752 32.3885V33.7667H20.8128C22.0032 33.7261 23.1168 33.2397 24 32.3885H10.6752ZM26.6496 32.3885V33.7667H33.2928V32.3885H26.6496ZM36.8256 32.3885L37.2864 33.7667H37.3632L37.824 32.3885H36.8256ZM41.28 32.3885V33.7667H48V32.3885H41.28Z" fill="#D9D6EF"/>
</svg>
