<svg width="32" height="32" viewBox="0 0 32 32" fill="none" xmlns="http://www.w3.org/2000/svg" aria-hidden="true" data-testid="customerLogos[NodeJsLogo]" class="e-1k6ejr9"><path fill-rule="evenodd" clip-rule="evenodd" d="M14.694 31.671a2.513 2.513 0 002.492 0l11.854-6.77a2.478 2.478 0 001.245-2.14V9.228A2.47 2.47 0 0029.04 7.09L17.186.314c-.744-.419-1.742-.419-2.492 0L2.84 7.09a2.467 2.467 0 00-1.243 2.138v13.533c0 .88.475 1.7 1.243 2.14l3.109 1.77c1.506.733 2.045.733 2.73.733 2.23 0 3.51-1.334 3.51-3.66V10.383a.34.34 0 00-.342-.338h-1.504a.34.34 0 00-.344.338v13.361c0 1.032-1.08 2.058-2.842 1.186l-3.248-1.855a.36.36 0 01-.186-.314V9.228c0-.128.072-.256.187-.32l11.848-6.765a.374.374 0 01.366 0l11.85 6.762c.114.067.184.19.184.323v13.533a.37.37 0 01-.181.318L16.12 29.847a.4.4 0 01-.368 0l-3.04-1.786c-.091-.052-.207-.071-.295-.023-.841.473-1 .535-1.79.806-.194.067-.483.183.108.51l3.958 2.317zm-1.002-14.037c0 1.976 1.087 4.331 6.276 4.331 3.756 0 5.91-1.464 5.91-4.018 0-2.533-1.73-3.208-5.374-3.683-3.681-.483-4.055-.731-4.055-1.584 0-.704.316-1.644 3.043-1.644 2.435 0 3.334.52 3.703 2.144a.34.34 0 00.332.264h1.54c.094 0 .185-.041.25-.108a.342.342 0 00.09-.261c-.238-2.798-2.117-4.101-5.915-4.101-3.38 0-5.396 1.41-5.396 3.777 0 2.567 2.006 3.275 5.25 3.594 3.88.374 4.182.936 4.182 1.692 0 1.31-1.063 1.87-3.56 1.87-3.137 0-3.828-.78-4.059-2.323a.343.343 0 00-.34-.287h-1.534c-.19 0-.342.15-.342.337z" fill="#53914F"></path></svg>