<svg width="24" height="24" viewBox="0 0 24 24" fill="none" xmlns="http://www.w3.org/2000/svg">
<path d="M9.49999 12.5C9.49999 10.8432 10.8431 9.5 12.5 9.5H20.25C20.388 9.5 20.5 9.38807 20.5 9.25V1.50001C20.5 0.671587 19.8284 1.52588e-05 19 1.52588e-05H1.5H1.5C0.671572 1.5295e-05 0 0.671587 0 1.50001V16H0C1.25089e-07 16.8284 0.671572 17.5 1.5 17.5H4.49999V21V20.9999C4.49999 21.2022 4.62194 21.3846 4.80892 21.462C4.86956 21.4868 4.93444 21.4998 4.99999 21.5C5.13284 21.5 5.26021 21.4471 5.35399 21.353L9.20699 17.5H9.24999C9.38806 17.5 9.49999 17.3881 9.49999 17.25V12.5ZM2.97 9.969C3.26304 9.6771 3.73695 9.6771 4.03 9.969H4.02999C4.84707 10.7943 5.91691 11.3224 7.06899 11.469C7.47989 11.5217 7.77023 11.8976 7.71749 12.3085C7.66475 12.7194 7.28889 13.0097 6.87799 12.957C5.39681 12.7687 4.02117 12.0904 2.97 11.03C2.67701 10.7372 2.67686 10.2623 2.96966 9.96934C2.96977 9.96923 2.96988 9.96912 2.97 9.969H2.97ZM7.74999 6.50001C7.74999 6.91422 7.4142 7.25001 6.99999 7.25001C6.58578 7.25001 6.24999 6.91422 6.24999 6.50001V4.50001C6.24999 4.0858 6.58578 3.75001 6.99999 3.75001C7.4142 3.75001 7.74999 4.0858 7.74999 4.50001V6.50001ZM13.75 6.50001C13.75 6.91422 13.4142 7.25001 13 7.25001C12.5858 7.25001 12.25 6.91422 12.25 6.50001V4.50001C12.25 4.0858 12.5858 3.75001 13 3.75001C13.4142 3.75001 13.75 4.0858 13.75 4.50001V6.50001Z" fill="url(#paint0_linear)"/>
<path opacity="0.4" d="M22.5 11H12.5C11.6716 11 11 11.6716 11 12.5V19.5C11 20.3284 11.6716 21 12.5 21H16.333L20.2 23.9C20.4209 24.0657 20.7343 24.0209 20.9 23.8C20.9649 23.7135 21 23.6082 21 23.5V21H22.5C23.3284 21 24 20.3284 24 19.5V12.5C24 11.6716 23.3284 11 22.5 11C22.5 11 22.5 11 22.5 11ZM14.5 16C14.5 15.4477 14.9477 15 15.5 15C16.0523 15 16.5 15.4477 16.5 16C16.5 16.5523 16.0523 17 15.5 17C14.9477 17 14.5 16.5523 14.5 16C14.5 16 14.5 16 14.5 16ZM19.5 17C18.9477 17 18.5 16.5523 18.5 16C18.5 15.4477 18.9477 15 19.5 15C20.0523 15 20.5 15.4477 20.5 16C20.5 16.5523 20.0523 17 19.5 17Z" fill="url(#paint1_linear)"/>
<defs>
<linearGradient id="paint0_linear" x1="20.5" y1="1.42509e-05" x2="21.3275" y2="20.6451" gradientUnits="userSpaceOnUse">
<stop stop-color="#5E97EE"/>
<stop offset="1" stop-color="#897AE3"/>
</linearGradient>
<linearGradient id="paint1_linear" x1="24" y1="11" x2="24.4772" y2="23.4849" gradientUnits="userSpaceOnUse">
<stop stop-color="#5E97EE"/>
<stop offset="1" stop-color="#897AE3"/>
</linearGradient>
</defs>
</svg>
