<svg width="32" height="32" viewBox="0 0 32 32" fill="none" xmlns="http://www.w3.org/2000/svg" aria-hidden="true" data-testid="customerLogos[HubspotLogo]" class="e-1k6ejr9"><path fill-rule="evenodd" clip-rule="evenodd" d="M22.614 22.177c-2.091 0-3.787-1.678-3.787-3.747 0-2.07 1.696-3.747 3.787-3.747 2.092 0 3.787 1.677 3.787 3.747s-1.695 3.747-3.787 3.747zm1.134-10.961V7.882c.88-.411 1.495-1.291 1.495-2.313v-.077c0-1.41-1.166-2.563-2.59-2.563h-.078c-1.424 0-2.59 1.153-2.59 2.563v.077c0 1.022.616 1.902 1.495 2.313v3.334a7.385 7.385 0 00-3.492 1.52L8.74 5.617c.061-.231.104-.47.105-.721 0-1.598-1.306-2.894-2.92-2.896C4.312 1.998 3.002 3.29 3 4.888 2.998 6.485 4.304 7.78 5.918 7.783c.526 0 1.013-.147 1.44-.388l9.097 7.005a7.22 7.22 0 00.113 8.22L13.8 25.36a2.388 2.388 0 00-.686-.11c-1.326 0-2.4 1.063-2.4 2.375S11.788 30 13.114 30c1.326 0 2.401-1.064 2.401-2.376a2.32 2.32 0 00-.111-.679l2.736-2.708a7.397 7.397 0 004.473 1.502c4.08 0 7.386-3.272 7.386-7.309 0-3.654-2.713-6.673-6.252-7.214" fill="#FF7A59"></path></svg>