<svg width="56" height="56" viewBox="0 0 56 56" fill="none" xmlns="http://www.w3.org/2000/svg">
<path fill-rule="evenodd" clip-rule="evenodd" d="M38.0924 0.302246C38.5954 7.84995 32.2749 13.0019 27.2286 12.7655C26.7055 5.90518 32.5851 0.76329 38.0924 0.302246ZM31.3278 16.0421C33.4264 15.2239 35.8617 14.2744 39.2408 14.7606C42.5369 15.2317 45.5077 16.7473 47.9236 20.0014L48.5757 21.0023C40.2401 25.8776 40.2736 37.6049 49.3369 41.2295C48.16 44.5071 45.7122 49.7295 42.4765 52.9149C38.6326 56.6892 35.8912 55.6406 32.7388 54.4349C32.1707 54.2176 31.5893 53.9952 30.9857 53.795C28.7944 53.0674 26.1724 53.4463 24.0834 54.3382C24.0236 54.364 23.9641 54.3897 23.9049 54.4152C21.9897 55.2414 20.4105 55.9228 18.1955 55.495C14.7754 54.8412 11.5598 50.323 8.86561 45.2347C5.6819 39.2127 3.65331 28.6137 7.11532 22.3083C8.11956 20.4943 9.52113 18.8144 11.3955 17.2284C13.6789 15.282 16.4334 14.7908 18.5962 14.7488C20.4844 14.7207 22.3677 15.4423 24.0929 16.1032C24.8369 16.3883 25.5515 16.6621 26.2243 16.8596C27.5857 17.2586 28.8565 16.9518 30.2279 16.4606C30.586 16.3313 30.9515 16.1888 31.3278 16.0421Z" fill="#D9D6EF"/>
</svg>
