<svg width="48" height="48" viewBox="0 0 48 48" fill="none" xmlns="http://www.w3.org/2000/svg">
<path fill-rule="evenodd" clip-rule="evenodd" d="M21.8894 26.0425C21.7513 24.3355 20.2761 22.9439 18.54 22.9439C16.716 22.9439 15.18 24.4799 15.18 26.3039C15.18 27.3294 15.6655 28.2638 16.4147 28.8854L15.0893 31.9915C14.9613 31.976 14.8315 31.968 14.7001 31.968C12.8761 31.968 11.3401 33.504 11.3401 35.328C11.3401 37.152 12.8761 38.688 14.7001 38.688C16.5241 38.688 18.0601 37.152 18.0601 35.328C18.0601 34.3124 17.5839 33.3861 16.847 32.7645L18.1787 29.6437C18.2976 29.6571 18.4181 29.6639 18.54 29.6639C19.7838 29.6639 20.8937 28.9497 21.4739 27.9169L25.7923 28.8988C26.0751 30.4575 27.4731 31.6798 29.1002 31.6798C30.9242 31.6798 32.4602 30.1438 32.4602 28.3198C32.4602 27.3238 32.0022 26.4136 31.2893 25.7925L32.9443 21.6C34.7665 21.5977 36.3001 20.0626 36.3001 18.24C36.3001 16.416 34.7641 14.88 32.9401 14.88C31.1161 14.88 29.5801 16.416 29.5801 18.24C29.5801 19.3914 30.1923 20.4281 31.1026 21.0361L29.5417 24.99C29.397 24.9701 29.2496 24.9598 29.1002 24.9598C27.7483 24.9598 26.5545 25.8037 26.0272 26.9832L21.8894 26.0425ZM14.7001 33.888C13.9321 33.888 13.2601 34.56 13.2601 35.328C13.2601 36.096 13.9321 36.768 14.7001 36.768C15.4681 36.768 16.1401 36.096 16.1401 35.328C16.1401 34.56 15.4681 33.888 14.7001 33.888ZM17.1 26.3039C17.1 25.5359 17.772 24.8639 18.54 24.8639C19.308 24.8639 19.98 25.5359 19.98 26.3039C19.98 27.0719 19.308 27.7439 18.54 27.7439C17.772 27.7439 17.1 27.0719 17.1 26.3039ZM29.1002 26.8798C28.3322 26.8798 27.6602 27.5518 27.6602 28.3198C27.6602 29.0878 28.3322 29.7598 29.1002 29.7598C29.8682 29.7598 30.5402 29.0878 30.5402 28.3198C30.5402 27.5518 29.8682 26.8798 29.1002 26.8798ZM31.5001 18.24C31.5001 17.472 32.1721 16.8 32.9401 16.8C33.8041 16.8 34.3801 17.472 34.3801 18.24C34.3801 19.104 33.7081 19.68 32.9401 19.68C32.1721 19.68 31.5001 19.008 31.5001 18.24Z" fill="#D9D6EF"/>
<path fill-rule="evenodd" clip-rule="evenodd" d="M7.5 6.528V41.472C7.5 45.696 15.948 48 23.82 48C31.692 48 40.14 45.696 40.14 41.472V6.528C40.14 2.304 31.692 0 23.82 0C15.948 0 7.50002 2.30401 7.5 6.528ZM23.82 13.056C18.2364 13.056 12.3629 11.8968 9.42 9.71552V41.472C9.42 43.392 14.892 46.08 23.82 46.08C32.748 46.08 38.22 43.392 38.22 41.472V9.71552C35.2771 11.8968 29.4036 13.056 23.82 13.056ZM23.82 1.92C32.748 1.92 38.22 4.608 38.22 6.528C38.22 8.448 32.748 11.136 23.82 11.136C14.892 11.136 9.42 8.448 9.42 6.528C9.42002 4.608 14.892 1.92 23.82 1.92Z" fill="#D9D6EF"/>
</svg>
