<svg width="32" height="32" viewBox="0 0 32 32" fill="none" xmlns="http://www.w3.org/2000/svg" aria-hidden="true" data-testid="customerLogos[PythonLogo]" class="e-1k6ejr9"><path fill-rule="evenodd" clip-rule="evenodd" d="M12.091.422a21.68 21.68 0 013.629-.31 23.684 23.684 0 013.955.31c2.061.344 3.797 1.89 3.797 3.947v7.23c0 2.12-1.685 3.859-3.797 3.859h-7.584c-2.575 0-4.743 2.21-4.743 4.717v3.469h-2.61c-2.207 0-3.496-1.602-4.036-3.85-.728-3.02-.697-4.825 0-7.717.604-2.523 2.537-3.85 4.743-3.85h10.443v-.964H8.295V4.37c0-2.19.583-3.379 3.796-3.947zm.947 3.47c0-.8-.64-1.452-1.425-1.452-.787 0-1.424.651-1.424 1.451 0 .798.637 1.443 1.425 1.443.784 0 1.424-.645 1.424-1.443z" fill="url(#pythonLogo_svg__paint0_linear)"></path><path fill-rule="evenodd" clip-rule="evenodd" d="M24.419 11.6V8.228h2.85c2.209 0 3.25 1.653 3.796 3.85.759 3.05.793 5.338 0 7.716-.768 2.31-1.59 3.85-3.797 3.85h-11.38v.964h7.584v2.894c0 2.191-1.885 3.305-3.797 3.858-2.875.835-5.18.707-7.584 0-2.007-.59-3.796-1.8-3.796-3.858v-7.23c0-2.08 1.719-3.858 3.796-3.858h7.585c2.527 0 4.743-2.2 4.743-4.815zm-2.84 16.38c0-.798-.639-1.442-1.426-1.442-.784 0-1.424.644-1.424 1.442 0 .8.64 1.451 1.424 1.451.787 0 1.425-.65 1.425-1.451z" fill="url(#pythonLogo_svg__paint1_linear)"></path><defs><linearGradient id="pythonLogo_svg__paint0_linear" x1="-7.303" y1="8.88" x2="10.207" y2="23.799" gradientUnits="userSpaceOnUse"><stop stop-color="#5A9FD4"></stop><stop offset="1" stop-color="#306998"></stop></linearGradient><linearGradient id="pythonLogo_svg__paint1_linear" x1="24.333" y1="24.588" x2="18.005" y2="15.82" gradientUnits="userSpaceOnUse"><stop stop-color="#FFD43B"></stop><stop offset="1" stop-color="#FFE873"></stop></linearGradient></defs></svg>